<?xml version="1.0" encoding="UTF-8"?>
<svg version="1.1" viewBox="0 0 1600 900" width="1280" height="1280" xmlns="http://www.w3.org/2000/svg">
<path transform="translate(0)" d="m0 0h1600v900h-1600z" fill="#081827"/>
<path transform="translate(1270,148)" d="m0 0h20l7 3-2 1 3 3 5 2 9-1 1 2 5-1 13 5 3 4 3-1 2-1v2h3v3l9 3 7 3 7 2 5 5 9 2 20 9 8 5 4 7 3 2 9 2 4 5 6 4 1 6 6 2 10 4h5l1-1h5l3 4 4 1v-2l-4-2-6-4-5 1-3-3-7-2 4-2 3-1 14 7 15 5 5 5 1 5v5l7 7 5 16 6 12 4 9 5 12 5 6 3 10 2 4v7l2 9-2-1 3 11-1 2v6l4 6 6 10v8l-4 2h-2l2 6 7 8 2 3v10l5 21v5l-5-1v-2h-3l2 8 2 2v7l-1 4 4-1v4l-2 1 1 9 3 8 4 17 1 5-2-1 1 5v21l-4 2v-2l-9-3h-8l-12 4-18 1-3 2-2 10-1 11-2 1-2-1-5-19-3-26-4-5-5-3-1-5 2-1 17 8h7v-6l-10-10-1-3 3-13 2-4v-20l-2-9-2-13-5-19 1-3v-7l-6-11v-11l-4-12-2-23-4-14-2-9h-2l-2-6-2-2-3-11-7-8-9-8-5-6-9-7v-2l-6-2-6-3-6-2h-24l9 4-2 3-5-2-2-1-11 1-11 3-1 6-12 2-1 1h-6l-4-1-7 3-3 2-12 1-12 6-3 3-21 10h-7l-6 3-8 6h-2l-3 10-6 5-2 5 3 1-6 7-5 4-2 5-6 5-3 12-10 14-3 5-2 9-4 4-3 9h-2l-1 8-1 1-7-1-2-1 4 14 2 4 13 4 2 4 4 2 7 8 1 6 5-3 2 1 3 9 3 5v5h2l2 3 3 1 16 1v4l6-2 1-1 11-1 11-5 22-6h6l-4 3-18 6-5 2h-3v2h-2l-1 6v8l5 17v2h2l1 10 4 1 6 12v3h-2l-5-8-7-7v-2h-2l-7-10-5-12v-2h-2v-2l5 2 3 1-3-11h-27l2 8 2 1-3 2-3 5-4 3-3 9h-2l-3 9-3 5-3 16-3 10-5 16-2 5-3 12-2 3-5-1v-18l1-8 8-7 1-3-12 6-10 4-12 2h-19l-14-3-17-3-12-1h-17l-6 2-12-1-8 8-1 3v23l2 21 11 3 2 2 2 7 5 1v2l6 1 5 4 2 5 4 2-2 1 5 3 4 5h7l3 6 5 1 2 13 3 5v2h3l-1-10 5 2 4 2 4 9v2l8-1 5-3 7-2 9-3v-2l3-1v6l10-1 1-3 8-3 8 2 4-4 4-6 3-1h10l5-4 7-1 2 4 8 1 3 4-1 6 1 5-3 3-4-5-5 1-4 6-6 7-5 1v2h-2l-2 4-17 6-3 5 13-3 8-4h2v-2l9-2 7-2 7 1 6 2 1 3 1-3 3 1-1 3h-2v2h-3l2 5 5 5v4l3 1h-8l-8 3-15 1-6 1 1 3 11 6 3 4-1 8 10 5 7 1 2 2 4 1 5 1 10 1 2 2-2 9-3-1v-4l-4 2-7 1-2 1 4 1-2 2h-9l-3 1-1 2-3 3-5 2-14 1-10 4-1 2-10 3-3 2-1 4 3 1 2 7 5 1-1 6-1 3h7l7-4 6 2 2 9-1 2 11 1h2v-2l9 3 6 4h9l12 2 9 2-1 2h-2v2l5 2 1-2 5-1h7l2 3v4h3v-4l2-1h7l3 3-1 7h-2v4l5-2 3-2h5l1-3 8-4h4l1-8 5-5 3-5 7 1v-5l3-4h2l3 5 3-4 7-1h4l2-1 3-5 4 2v2l11 1-1 4-6 7-4 7-4 3h-5l-1 7-7 6h-2v2l-8 8-3 1v3l-11 4h-2l-1 3h-3l-1 4-6 1v2l-9 2v2l-9 1-1-2-5 1-4 2-5 5h-5l-3 9-2-1 1-3h-2l-1 4-1 1v6h2l-1 7-5 5h-267l2-5 15-28 13-21 11-13 6-5 7-8 11-15 8-11 7-8 5-9 5-7-2-12-3-19-9-30-6-16-6-8-4-8-5-5-3-9-3-10-1-8-4-2-2-4v-12l-4-8-3-5v-8l-3-6v-5l5 1-1-9-6 1-8-4-4-7-2-4-13-23-4-8-4-18-3-17-1-7-1-3-2-17-6-45-1-30 2-22 5-20 9-33 9-22 13-23 8-12v-2l2-2 1-2h2l2-5 8-10 3-5 8-10 6-8 7-6 3-5 6-6h2l2-4h3l2-4 7-5h2v-2l12-9 10-5 14-9 17-8 14-5 16-5 4-1 9-2 12-2 16-2h15z" fill="#02090E"/>
<path transform="translate(1374,263)" d="m0 0 17 2 8 4 3 3 5 3 1 4 7 1 3 3 1 9 2 7 9 6 3 9 3 5v3h2l4 6 2 9 3 4 5 16 3 7 3 3 2 7 1 12h2l3 6 4 3 2 8 2 5 2 26 1 12 1 3v10l-2 9 1 5 4 2 4 5 1 5-5-1-1-3-10-3-7-2-10-2-1-1-2-12-9-3-9-4-12-3-18-1-8-2h-11l-13 1-9-1-1-2 7-1h6l-2-6-3-2-25-1-6 2-12 8-7 3-1 2 10-4 9 1 1-1h10l11 2 14 2 2 3 6 1-1 5 16 2 2 1v2l4 1v3l-2 1-1 5h-8v-2l-18 1-5 4-5 5-4 2-2-1 1 6 5 2 5 7v2l4 2 1 3 6-2 7-6 2-4v-16l8 2 8 7 2 5 4 5-2 4-3 2-7 2-8 7-1 7 3 1h7l10-3 6 2v2l11-1 4-2h3l1-4 1-2h2l1-20v-22l-2-2-1-4-10-5v-2h7l8 5 3 6 1 14 1 4-1 1-2 16v20l-4 4-6 3-12 3-11 2-3 1-15 1-3 1 15-1 19-3 13-1 4-2 8-16 3-4 2-7 4-8 6-1 7 3 5 2 3 5 2 1 4 25 3 10 1 4 1 17-1 10 2 1-5 3h-2l-1 11-1 12-2 9-1 15-2 12-1 10 3-1 4-8 1-3h2l3-24 2-13 2-12 2-4 4-2 2-6 3-5 1-7-4-1-2-7 1-12 1-4h2l1-4 3-1 11-1 2-2h11l5 1v3h-2v2l-5 5-5 6h-2l-1 3-3 3-2 3-1 5 5-5 6-8 5-5 5-1 1 4v7h3l1-12 3 1 5 6v2h2l4 10 1 1 2-2 1 12-2 2-2 4-4 9-7 10-4 11-8 23-6 10-4 2-1-2h-3l-2 13-3 1v6l1 1-1 9-4 12-3 3h-3l-5 4h-4v-2l-3-1-3-5-2-2-1-11-4 10-2 10-3 16-2 10-2 2-1 13-2 3-3 10-2 4h3l-2 6-3 1-1-7-2 1-4 9-5 8-2 1-3 7-3 3-4 1-3 9-4 1-1 2-3-1v-2h-3l-1 4-3 1v-2l-4 1-4-5-10-2-2-6-7-2-2-1-2-5-5 1v9l-6 1v6l-5 2-5 6h-2v2l-4 1v2h-2l-1 5-4 4h-3v2l-4 2-3-2-2 4-3 1-6-2v-3h-3v-3h-2l-2 5-5-1-1-3-2 4h-2l-2-2h-6l-2-4-3 3h-7l-1-4h-7l-9-3-7 1-1-9v-2l10-1v-3h-2l1-6h-4v-2h-5l-1 3h-1l-1-9 15-5h8v-3l3-1 3-4h6l6 2 1-3 8-3 7 1-1-7 2-3v-7h-9l-9-2-1 1-12-1-4-3-5-2-7-1-5-5h-7l-2-4-4-2 1-5 4-5 3-1h14l7-3 5-1 23-2h19l2-1h8l2 2 6-2h11l3 3 5-1 3 3-1 4-3 1 3 5h7l5 1 1 2 5 3-1 4-2 1v5l4 1 1 3 3-3 3-9h-2l-1-2-2-19 2-7-2-13-1-4-4-3-1-4-6-2-7-5-1-6h-9l-5-1-1 4-8 1-7-2-6-4-8 1-5-2-4-8-11-5h-10l-8-4-6 3h-2l1 4 7 2 2 2 4 13 1 1 15 2 1 1 23-1 2 5v4l5 2 7 4 4 10h-11l-20-8-2-1-15-2h-12l-4 3-10 2-3 2h-5v-2l-13-1-3-2v-2h-2l1-5 8-1 4-2 1-6-2-4-1-7v-11l-1-7 5-7 5-3 5-5 5-4 8-3h7l9 4-2-7-8-2-9 1-5 4-10 5-5 1-4-5-5 1-4 1v-2l-5-2v-2l-5-2-7-3-1-7-5-4-2-5v-11l2-4 1-8 2-6 3-8-1-10-2-6v-25l3-9 4-10 3-3 2-4 2-1-3-5v-4l4-1h21l3 3 2 4v5l-4-1-4-2v2h2l5 13 4 5 3 4v2h2l7 8 4 5 1 4h2l-4-9-2-3v-3l-4-1-1-3v-7h-2l-3-9-3-10v-8l2-6h2v-2l13-5 13-4 2-1-7 1-19 5-11 5-11 1-2 2h-5v-4h-16l-5-3v-2h-2l-3-9-2-2-1-8-4 1-3 1-3-7-7-8-4-4-13-4-3-5-3-9v-5l9 1 2-8 2-1 3-9 3-3 3-11 8-11 4-6 3-12 5-5 3-1 7-8 3-2h4l2-6 3-3 3-5 5-3 5-6 9-4 8-3 3 2-4 5 9-1 1-7h-2l1-5 13 2 1-5 9-4 5-1v3l6-2 9-5h2l1-3 9-4 6 2 4 2 5-3 4-2h3v-5z" fill="#4E464F"/>
<path transform="translate(1244,495)" d="m0 0 1 4-4 9-1 5v25l3 12-1 5-3 12-1 1-2 11-1 1v11l2 5 5 4 1 7 6 2 5 3 3 3 2 1v2l6-3 4 1 3 4 5-1 11-6 4-3 9-1 8 2 2 5v3l-9-3h-7l-9 4-7 5-5 5h-2l-2 4-2 3 1 7v12l2 9 1 5-4 4-7 2h-3l-1 4h2l3 3 13 2v2l6-2 5-2 7-1 4-3h12l15 2 8 4 10 3 4 2h10l-3-5v-4l-6-2-6-4-2-8-23 1-5-2-11-1-2-2-4-13-2-2-7-2v-4l9-4 8 4h9l12 6 4 8 7 1 5-1 8 5 6 1 7-1 1-3h12l2 1 3 7 6 4 6 2v4l4 2 2 4 1 11 1 5-2 5 2 21h2l-1 7-3 5h-2l-2-3-3-1-1-5 3-2-1-4-4-2v-2h-12l-3-3v-3l3-2-1-4-2-1-4 1-3-2v-2l-16 2-2 1-1-2h-8l-2 1h-19l-23 2-10 3-2 1h-17l-2 4-2 2 1 5 4 4h7l5 5 9 2 6 3 1 1 12 1 4-1 6 2 9 1 1 7-2 3v5 3l-8-1-7 3-1 2-12-1-3 4h-3v3l-16 3-2 2h-5l2 8 1-2h5v2h4l-1 6h2v3l-3 1h-7l1 3v8l7-2 9 3 7 1 1 3h7l4-5 1 7 7-1 1 3h2l2-5 2 4h4l2-4h2v3h3v3l9 1 2-5 4 2 3-1v-2h3l1-3 3-3 1-3h2v-2l4-1v-2l5-4 2-3 5-1v-6l6-1-1-9 6-2 2 2v4l9 2 2 4v3l10 1 4 5h4v2l3-2 1-3 5 1h2l5-2v3l-2 2-1 5 3 5 3 12v16l-2 17-2 15-1 17-4 21-2 5h-123l2-4 2-2 1-5-2-1v-6l3-5h2l1 4 1-4 2-5 7-2 5-5 6-2 5 1-3 1h9v-2l5-2h4v-2l6-1 1-4 3-1 3-3 10-4 1-3 5-3 4-5h2v-2l4-2 3-4h2l1-7 7-2 4-5 3-6 3-1 2-4 1-3h-9l-4-4-3 1-2 4-5 2-5-1-3 1-2 4-4-4v-2l-4 4v5l-4 1-4-1-5 8-2 1-2 8-9 3-4 4-7 2-2 2h-4v-4h2v-7l-2-2h-9v4h-3l-2-6h-7l-8 2-3-2v-2l-2-1 5-1h-7l-5-2-15-1-4-1-5-3-6-2-3-2v2l-2 1h-6l-3-1-4-1h2l-1-11-7-1-6 4-7-1 2-9h-5l-2-4-1-4-2-1 1-5 6-3 7-1 2-4 9-3 14-1 6-3 3-3 5-2h7l1-1-3-1-1 2v-3l7-2 7-1 2 3 2-4-1-4-10-1-8-1-3-3-9-1-3-3-6-3 1-8-5-5-9-5v-3l7-2 14-1 9-3h4l-3-7-4-3v-4h3v-2h2l-1-3-3 3-1-4-7-2-10 1-4 2h-7v2l-13 6-10 1 1-4 5-3 14-5 2-3h2v-2l6-3 7-9 3-4 5 1 4 4 1-3-1-6 1-4-2-3-8-2-2-3-7 1-5 4h-11l-4 4-4 6-5 1-2-2-9 2-3 3-6 2-5-1v-5h-2v2l-10 5-8 2-3 2h-8l-4-10-5-1v-2l-3-1v9h-3l-5-10v-10h-5l-3-4v-3l-7 1-5-6-5-2 1-3-4-2-2-5-5-3-4-1v-2h-5l-2-3-2-6-11-4-1-2-2-19v-23l3-5 7-7 12 1 9-2h20l12 2 11 2 14 3h19l16-3 16-8h2l-1 4-7 6-1 13v13h4l3-8 2-10 4-10 4-14 3-12 2-9 6-12h2l2-9z" fill="#010F28"/>
<path transform="translate(1356,298)" d="m0 0h4l1 2 5 3h5l5 6v68l5 2 3 2v3l6 2 4 6 3 7 4 3 3 7 1 5-2 6-6 2-3 3-4-1-1-3h-5l-2 7h-8l-8-2-14-1-16 4-12 1-7 3-3 5-5 2-7 4-6 10-1 2h-2l-2 5h-2v2l-11 5-11 1-2 2h-5v-4h-16l-5-3v-2h-2l-3-9-2-2-1-8-4 1-3 1-3-7-7-8-4-4-13-4-3-5-3-9v-5l9 1 2-8 2-1 3-9 3-3 3-11 8-11 4-6 4-10 6-4 5-5 5-3 7-5 12-4 5-4 7-5 5-1 1-2h6v-2l10-2 5-5 8-2 3-1 2 1-2 9 9-2 7-4 4 1 7-2 8-2 3 1 1-3z" fill="#A5888F"/>
<path transform="translate(1374,263)" d="m0 0 17 2 8 4 3 3 5 3 1 4 7 1 3 3 1 9 2 7 9 6 3 9 3 5v3h2l4 6 2 9 3 4 5 16 3 7 3 3 2 7 1 12h2l3 6 4 3 2 8 2 5 2 26 1 12 1 3v10l-2 9 1 5 4 2 4 5 1 5-5-1-1-3-10-3-7-2-10-2-1-1-2-12-9-3-9-4-12-3-18-1-8-2h-11l-13 1-9-1-1-2 7-1h6l-2-6-3-2-25-1-6 2-12 8-7 3-1 2 10-4 9 1 1-1h10l11 2v1l-20-1-6 3v4h8l6-4v11l4 6 8 4-4 1 2 5-2 3-9-1-1 3-7 4-7 8-3 2 11 2 3 3-1 1-21 1 1 7 6 9-2 6-4-2-1-3h-9l-3-3-2-6-8-2 2-6v-29h-8l-2-3v-3l-2 2 3 14 4 6-1 3h-3l-2-7v10h-1l-4-15v-8l2-6h2v-2l13-5 13-4 2-1-7 1-16 4-3-1h2l2-5h2l2-6 3-3 2-4 8-5h4l2-5 8-4 17-2 11-3h7l12 2 11 2 2-7h5l2 3h5l2-4 5-1 1-9-3-4-2-5-4-4-5-10-6-3v-3l-8-4-1-5v-63l-5-5-5-1-5-3v-2l-7 2-1 2-9 1-3 2-8 1-3-1-6 4-9 1 2-9-5 1-2 1h-6l-2 4-7 3h-6v2h-6l-1 3-6 2-10 7-10 4-9 5-3 3-6 3-5 5-3 1-1 2 1-5 4-4 3-1 7-8 3-2h4l2-6 3-3 3-5 5-3 5-6 9-4 8-3 3 2-4 5 9-1 1-7h-2l1-5 13 2 1-5 9-4 5-1v3l6-2 9-5h2l1-3 9-4 6 2 4 2 5-3 4-2h3v-5z" fill="#4E464F"/>
<path transform="translate(1265,762)" d="m0 0 1 2-1 3-6 3h-12l-1 13 2 7v4l6-2 4-2 1 4h4l1-2v5l-2 2h-3v3h7l3 1v2h3l3 3 3 2h5l5 1 5-2h8l4 2v2l6-1h13l6-2 10 1 2-5 4 2 3-1v-2h3l1-3 3-3 1-3h2v-2l4-1v-2l5-4 2-3 5-1v-6l6-1-1-9 6-2 2 2v4l9 2 2 4v3l10 1 4 5h4v2l3-2 1-3 5 1h2l5-2v3l-2 2-1 5 3 5 3 12v16l-2 17-2 15-1 17-4 21-2 5h-123l2-4 2-2 1-5-2-1v-6l3-5h2l1 4 1-4 2-5 7-2 5-5 6-2 5 1-3 1h9v-2l5-2h4v-2l6-1 1-4 3-1 3-3 10-4 1-3 5-3 4-5h2v-2l4-2 3-4h2l1-7 7-2 4-5 3-6 3-1 2-4 1-3h-9l-4-4-3 1-2 4-5 2-5-1-3 1-2 4-4-4v-2l-4 4v5l-4 1-4-1-5 8-2 1-2 8-9 3-4 4-7 2-2 2h-4v-4h2v-7l-2-2h-9v4h-3l-2-6h-7l-8 2-3-2v-2l-2-1 5-1h-7l-5-2-15-1-4-1-5-3-6-2-3-2v2l-2 1h-6l-3-1-4-1h2l-1-11-7-1-6 4-7-1 1-5 2-1 2-9 7-6h2l1-5h2l2-5 2-1h8l7-1z" fill="#081926"/>
<path transform="translate(1254,476)" d="m0 0h21l3 3 2 4v5l-4-1-4-2v2h2l5 13 4 5 3 4v2h2l7 8 4 5 1 4h2l5 8 4 5 9 3-1 5 3 5 3 2 3 15 4 23 1 9-4 6-1 6-2-4-1-1-2 1h-8l-3-3-9-1h-9l-7 2-3 5-8 7-5-1-3-4-5 1-4 1v-2l-5-2v-2l-5-2-7-3-1-7-5-4-2-5v-11l2-4 1-8 2-6 3-8-1-10-2-6v-25l3-9 4-10 3-3 2-4 2-1-3-5v-4z" fill="#6A606A"/>
<path transform="translate(1293,638)" d="m0 0 9 4h9l12 6 4 8 7 1 5-1 8 5 6 1 7-1 1-3h12l2 1 3 7 6 4 6 2v4l4 2 2 4 1 11 1 5-2 5 2 21h2l-1 7-3 5h-2l-2-3-3-1-1-5 3-2-1-4-4-2v-2h-12l-3-3v-3l3-2-1-4-2-1-4 1-3-2v-2l-16 2-2 1-1-2h-8l-2 1h-19l-23 2-10 3-2 1h-17l-2 4-2 2 1 5 4 4h7l5 5 9 2 6 3 1 1 12 1 4-1 6 2 9 1 1 7-2 3v5 3l-8-1-7 3-1 2-12-1-3 4h-3v3l-16 3-2 2h-5l2 8 1-2h5v2h4l-1 6h2v3l-3 1h-7l1 3v8l7-2 9 3 7 1 1 3h7l4-5 1 7 7-1 1 3h2l2-5 2 4h4l2-4h2v3h3v3l2 1-8 1-5 1h-15l-2-2-7-1-7 1-5 1-3-1-4-1-5-3v-2h-3v-2h-8l-2-1v-3l4-2v-3h-4l-1-3-4 2-1 1h-5l-3-11v-7l2-6 12-1 6-2v-4l-4 4-9 1h-6l-6 6-1 4-4 1-2 4-2 1-2 9-2 1v-4h-5l-2-4-1-4-2-1 1-5 6-3 7-1 2-4 9-3 14-1 6-3 3-3 5-2h7l1-1-3-1-1 2v-3l7-2 7-1 2 3 2-4-1-4-10-1-8-1-3-3-9-1-3-3-6-3 1-8-5-5-9-5v-3l7-2 14-1 9-3h4l-3-7-4-3v-4h3v-2h2l-1-3-3 3-1-4-7-2-10 1-4 2h-7v2l-13 6-10 1 1-4 5-3 14-5 2-3h2v-2l6-3 7-9 3-4 5 1 4 4 1-3-1-6 1-4-2-3-8-2-2-3-4-2h6l3 2 7 1 2-2 4 19 1 5-4 4-7 2h-3l-1 4h2l3 3 13 2v2l6-2 5-2 7-1 4-3h12l15 2 8 4 10 3 4 2h10l-3-5v-4l-6-2-6-4-2-8-23 1-5-2-11-1-2-2-4-13-2-2-7-2v-4z" fill="#081927"/>
<path transform="translate(1319,545)" d="m0 0h15l10 2 24 1h19l4-1 6 1v7l3 3 4 1 1-3h2l2-6 4-1v2l2 1 1 16 7 2 5 8 4 2 1 2v6l-5 4-2 6-8 2-5 3-1 7-6 2-4 3-5 2-2 2-6 2h-8l-5-5-4-1-1 4v22l-1 10-5 1h-10l-1 3-2 1h-6l-5-5-2-1h-7l-2-1-1-3-7-5-13-1h-8l-2-1v-2l-4-2 1-4 7-4h8l8-4 5-4 2-4h2v-6l4-6-1-9-5-30-2-8-5-5-1-4z" fill="#836F77"/>
<path transform="translate(1356,298)" d="m0 0h4l1 2 5 3h5l5 6v68l5 2 3 2v3l6 2 4 6 3 7 4 3 3 7 1 5-2 6-6 2-3 3-4-1-1-3h-5l-2 7h-8l-8-2-14-1-16 4-12 1-7 3-3 5-5 2-7 4-6 10-1 2h-2l-2 5h-2v2l-9 4-2-1 5-3-1-4v-8l5-5v-2h2v-4l3-2 9-2 19-9 12-4 6-1 8-1v-2l9-4 1-2 1-10 8-1 2-3-11-6-1-9-5-2-7-1-1-1-1-20-1-3-5-4v-6l1-2h2v-7l-2-5h-12l-2-3v-7l-1-3-6 1-13 2-2 2-10 4-3 3h-7l-2-3-11 1v2h-4v-7l6-5 7-5 5-1 1-2h6v-2l10-2 5-5 8-2 3-1 2 1-2 9 9-2 7-4 4 1 7-2 8-2 3 1 1-3z" fill="#6F5C65"/>
<path transform="translate(1338,448)" d="m0 0 15 1 19 2 2 3 6 1-1 5 16 2 2 1v2l4 1v3l-2 1-1 5h-8v-2l-18 1-5 4-5 5-4 2-2-1 1 6 5 2 5 7v2l4 2 1 3 6-2 7-6 2-4v-16l8 2 8 7 2 5 4 5-2 4-3 2-7 2-8 7-1 7 3 1h7l10-3 6 2v2l11-1 4-2h3l1-4 1-2h2l1-20v-22l-2-2-1-4-10-5v-2h7l8 5 3 6 1 14 1 4-1 1-2 16v20l-4 4-6 3-12 3-11 2-3 1-15 1-3 1 5 1v1l-30 2h-14l-1-1-2 5h-6l-4-2-14-1-11-3-7-8-4-12-3-4v-3l-4-1-1-3v-7h-2l-2-10v-5l3 3v5l3-1-2-5-3-6-2-12 3-1 2 6 3-1 5 1 1 29-3 6 8 1 4 8 5 1h5l3 5h2l1-5-6-9-1-7 1-1 21-1-2-2-13-2 5-4 7-8 7-4 1-2h9l1-3-1-4 1-1-7-5-3-5v-10l-5 4h-8l-1-5 2-2z" fill="#4D464F"/>
<path transform="translate(1129,556)" d="m0 0 14 1 1 4-8 3-1 2 4 1 4 4 6 3h8l2 1 1-3h5l5 4 9 4 2-2h9l1 4 9 3 5 8v8l-2 9-1 1v9l4 3v2l3 1 3 5 4 1v2l8 1v2l18 3 4-1 6-1 3 2 5-1 5-2 7-9 4 1-4 1-2 4-2 3 1 7v11l-2-4-1-7-5 2-13-2-8 7-6-1-4-4-10 2-2 7-1 1-13 2-4-2h-5l-8 5-5 2 1-6 8-4-2-9 2-2v-12l1-4h-2l-1 3-5-1-6-4-2-6h-8l-1 1h-6l-1 7-4 1v-4h-10l-5-4v5l-7 1 1-6-5-4-9-2v-4l-1-2-10-5-3-5-4-2 2-6 2-9 1-3h-8v2l2 1v3h-3v-2l-4 1h-8l-2-2-5-1v-6l1-5v-2l6-1 3 2v10l3 1 4-8 4-1 1-9 15-2z" fill="#021743"/>
<path transform="translate(1261,325)" d="m0 0h2l1 8-7 7 1 10-2 5 7 2 1 41 2 1-4 3-1 10-2 2-1 5h3l1 4v10l-1 4 3 1v23l1 2-4 6-1-2h-16l-5-3v-2h-2l-3-9-2-2-1-8-4 1-3 1-3-7-7-8-4-4-13-4-3-5-3-9v-5l9 1 2-8 2-1 3-9 3-3 3-11 8-11 4-6 4-10 6-4 5-5 5-3 7-5z" fill="#2A547B"/>
<path transform="translate(1436,779)" d="m0 0 4 1 8 15 11 15 12 20 10 14 9 14 5 7 12 6 5 5 12 11 11 11v2h-110l2-10 3-16 1-17 3-20 1-12v-16l-4-14-2-5 2-5h2l1-4z" fill="#02090E"/>
<path transform="translate(1432,800)" d="m0 0 2 2 2 7v16l-2 17-2 15-1 17-4 21-2 5h-115v-5l4-1 3-3h2l1-3-2-2 4-1 1-4 3-6h2v-2l5-1v3l-1 3 6-1 4-1 2-6 3-4h7l1-3 6-3 3-5 3 1-1 7 4-1v2l4 1v2h2v2h2l-1-7-1-5 8-6 3-3 6 2v4l-5 3-2 2 2 4v4h-2l-1 5 4-1 1-4 4-4h2l1-6 4-4-1-6 2-4 2-1 1-5h-3l1-4 4-1h4l-1-5 6-7 2-7 8-6 3-5z" fill="#4E464F"/>
<path transform="translate(1079,572)" d="m0 0 2 1-1 6h5l2 2h12v2h3v-3l-3-1 1-3 8 1-2 12-3 6 5 2 2 5 4 1 8 5-1 4 9 2 6 5-1 5h6v-5l4 2 1 1h10l1 3-1 2 3-1 2-7 7-2h8l4 8 5 3h4l1-2h2l1 3-1 1v12l-2 2 1 6v4l-7 3-1 5 11-6 1-1 7 1 4 1 11-2 3-8 10-2 6 5 5-1 8-6 12 2 5-1v5l-8-1-3-2-6-1v2l-6 3-2 2h-11l-4 4-4 6-5 1-2-2-9 2-3 3-6 2-5-1v-5h-2v2l-10 5-8 2-3 2h-8l-4-10-5-1v-2l-3-1v9h-3l-5-10v-10h-5l-3-4v-3l-7 1-5-6-5-2 1-3-4-2-2-5-5-3-4-1v-2h-5l-2-3-2-6-11-4-1-2-2-19z" fill="#010F29"/>
<path transform="translate(1256,487)" d="m0 0h8l3 5 2 5v7l2 4 3 9 1 13 1 2 1 16-2 14 2 11 2 8 1 15v10l-3-3v-2h-5l-5 6-1 4-5 1v2h-2v-2l-6-1-5-4-6-5-5-5-3-6v-11l2-4 1-8 2-6 3-8-1-10-2-6v-25l3-9 4-10 3-3 1-3z" fill="#2D83BC"/>
<path transform="translate(1374,263)" d="m0 0 17 2 8 4 3 3 5 3 1 4 7 1 3 3 1 9 2 7 9 6 3 9 3 5v3h2l4 6 2 9 3 4 5 16 3 7 3 3 2 7 1 12h2l3 6 4 3 2 8 2 5 2 26 1 12 1 3v10l-2 9 1 5-6-5-3-11-2-12-3-7 2-10 1-8-2-16-4-8-1-5-2-7-4-2-2-7 1-3-4-1-5-5-1-7-3-4-1-5h-2l2 7-1 4-3-5-4-2h-4l-3-9-2-4v-8l-2-1-3-8-2-7v-6l-6-7-3-5-1-1-1-16-2-4-1-5-7-2v2l-3-1v-2l-8 1-3 1h-6l-1 3h-2v3l-6 3-9-1-2 4h-14l-7 3-5 2-6 1-3 3-5 2-2 3-8 3h-3v2l-9 4-12 3-6 5-12 7-5 4-1 2-9 5-3 3-6 3-5 5-3 1-1 2 1-5 4-4 3-1 7-8 3-2h4l2-6 3-3 3-5 5-3 5-6 9-4 8-3 3 2-4 5 9-1 1-7h-2l1-5 13 2 1-5 9-4 5-1v3l6-2 9-5h2l1-3 9-4 6 2 4 2 5-3 4-2h3v-5z" fill="#353640"/>
<path transform="translate(1347,744)" d="m0 0h3l-1 6-4 5-3-1-2 2h6l2-1h10l2 4-3 6-1 6 4 2 1 6-2 2-9 1-2 6 3 1 1 5h-9v-4l-3-3-4 2-1 1 4 2 2 4-5 6-2-3-5 1-2-1-3 1-4-2-5 1-1-3-3 1 1 8-2 2h-4l-2-4-3 3h-7l-1-4h-7l-9-3-7 1-1-9v-2l10-1v-3h-2l1-6h-4v-2h-5l-1 3h-1l-1-9 15-5h8v-3l3-1 4-4 7 3 1 4 4-1 4-7h3v5l10-2 5 1v-9l16-7z" fill="#6F5C65"/>
<path transform="translate(1373,452)" d="m0 0 17 1 37 3-3 1v2l6 2 5 3 2 5 1 1v22l-2 20h-2l-2 6-7 3h-11v-2l-8-1-8 3h-7l-4-2 1-7 4-4h2l1-3 3-2 8-2 2-4-5-6-2-5-8-6-6-2 1 5v11l-4 6-7 6h-5l-7-8-3-4v-2l-5-1-2-3v-5l5 1 5-6 6-4 1-1h18v2h8v-5l3-3-4-2v-2l-18-2v-4l1-2h-7z" fill="#081927"/>
<path transform="translate(1351,429)" d="m0 0 7 1 13 4 10 6 12 2 2 1 1 3 6 2-4 1-4-1h-11l-13 1-9-1-1-2 7-1h6l-2-6-3-2-25-1-6 2-12 8-7 3-1 2 10-4 9 1 1-1h10l11 2v1l-20-1-6 3v4h8l6-4v11l4 6 8 4-4 1 2 5-2 3-9-1-1 3-7 4-7 8-3 2 11 2 3 3-1 1-21 1 1 7 6 9-2 6-4-2-1-3h-9l-3-3-2-6-8-2 2-6v-29h-8l-2-3v-3l-2 2 3 14 4 6-1 3h-3l-2-7v10h-1l-4-15v-8l2-6h2v-2l13-5 13-4 2-1-7 1-8 1 5-6h2l2-4 11-4 6-1 2-4 13-8z" fill="#4E464F"/>
<path transform="translate(1245,710)" d="m0 0h18l-2 4-1 5 5 5h7l5 5 9 2 6 3 1 1 12 1 4-1 6 2 9 1 1 7-2 3v5 3l-8-1-7 3-1 2-12-1-3 4h-3v3l-16 3-2 2h-5l2 8 1-2h5v2h4l-1 6h2v3l-3 1h-7l1 3v8l7-2 9 3 7 1 1 3h7l4-5 1 7 7-1 1 3h2l2-5 2 4h4l2-4h2v3h3v3l2 1-8 1-5 1h-15l-2-2-7-1-7 1-5 1-3-1-4-1-5-3v-2h-3v-2h-8l-2-1v-3l4-2v-3h-4l-1-3-4 2-1 1h-5l-3-11v-7l2-6 12-1 6-2v-4l-4 4-9 1h-6l-6 6-1 4-4 1-2 4-2 1-2 9-2 1v-4h-5l-2-4-1-4-2-1 1-5 6-3 7-1 2-4 9-3 14-1 6-3 3-3 5-2h7l1-1-3-1-1 2v-3l7-2 7-1 2 3 2-4-1-4-10-1-8-1-3-3-9-1-3-3-6-3 1-8-5-5-9-5v-3z" fill="#071826"/>
<path transform="translate(1389,547)" d="m0 0 8 1v7l3 3 4 1 1-3h2l2-6 4-1v2l2 1 1 16 7 2 5 8 4 2 1 2v6l-5 4-2 6-8 2-5 3-1 7-6 2-4 3-5 2-2 2-6 2h-8l-5-5-4-1-1 4v22l-1 10-5 1h-10l-1 3-2 1h-6l-5-5-2-1h-7l-2-1-1-3-7-5-13-1h-8l-2-1v-2l-4-2 1-4 7-4h8l8-4h3l-5 5-1 4h8l3 9 6 4 9 1 4 4h10l2-7-1-5-6-9-2-2v-6l1-1h9v-7l3-1 4 1-1-5-2-5 5-1 3 5 3 3 10 3 1-5 12-1 5-3 4-11v-13l-8-1-1-1h-11l-3-4-8-3-3-5v-2h-2l-5-5-1-9 4-2h19z" fill="#6B606A"/>
<path transform="translate(1134,800)" d="m0 0h3l6 9 5 8 6 4 7 10 7 12 3 3 2 5 4 5 1 2 3 1 6 10 8 7 6 7 5 5 6 7v2h2v3h-38l-11-11-7-8-9-10-7-9-1-3-3-1-4-13-1-7-1-35z" fill="#2B537A"/>
<path transform="translate(1253,356)" d="m0 0h9l1 1 1 41 2 1-4 3-1 10-2 2-1 5h3l1 4v10l-1 4 3 1v23l1 2-4 6-1-2-12-1-1-1 1-16-2-5-4-1v-3l-5-2-3-6-6 1v2l-4-1v-2h2v-5l-7-3-1-5-3-3v-9l-2-4 1-7 3-6h13l1-1 11-1 7 2 1-3-3-1 1-3 2-1 1-3-9-3 1-3 7-1v-10z" fill="#4995BB"/>
<path transform="translate(1273,328)" d="m0 0h5l2 4-2 4v6l1 4-4 10-5 1 2 18 3 1v4h-3v16l-2 2 2 1 1 7 6 2 1-5h22l3-3 5-1 2 2h16l3 3v15l-7 4h-4v-4h-4l-1 3-5-1v-2l-8 3-7 3-7 4-7 1h-6l-3 3 1 23v8l-1 2 6 1v1l-11 1-2 2h-5l2-5 2-4-1-5v-19l-2-1v-18h-3v-5l2-2 1-10 4-3-2-4-1-38-7-1 2-6-1-10 8-8h3v-2z" fill="#718395"/>
<path transform="translate(1323,316)" d="m0 0 6 1 3-1-1 5-1 3 12-1 4 1h6l1 2h6l2 2 2 21 1 2v7h-2l1 11 8 7 4 2 5 10 8 5 3 6 6 8 1 4-2 2-9 1-4 4-7 2-10 1-4 1-8-1v2l-20 2-3-1 3-2 12-1v-2l9-4 1-2 1-10 8-1 2-3-11-6-1-9-5-2-7-1-1-1-1-20-1-3-5-4v-6l1-2h2v-7l-2-5h-12l-2-3v-7l-2-5z" fill="#836F77"/>
<path transform="translate(1538,539)" d="m0 0 3 1 5 6v2h2l4 10 1 1 2-2 1 12-2 2-2 4-4 9-7 10-4 11-8 23-6 10-4 2-1-2h-3l-2 13-3 1v6l1 1-1 9-4 12-3 3h-3l-5 4h-4v-2l-3-1-3-5-2-2-1-11-1-5 3-10 6-15 2-1 2 1 1 6 8 4h2v-2l2-1 1-4-7 1-5-2 1-7 10-21 4-2 1 4-2 10h-3l-1 6h2l1-3 3-3 3-1 2-7 5-4 4-4 1-9 3-6 6-1-1-4-1-2 2-1v-7l-2-6-1-14-2-4-1-9-3-1 2-2 5 1v10h3z" fill="#353640"/>
<path transform="translate(1287,470)" d="m0 0h2l2 6 3-1 5 1 1 29-3 6 8 1 4 8 5 1h5l3 5h2l1-5-6-9-1-7 1-1 21-1-2-2-13-2 5-4 7-8 8-5h7l2 10 6 8 1 4-4 2 10 1v-2l3 1-1 5-6 2h-9l6 6 1 8 5 3 11 2 2 1v2l-10 2h-22l-1 4h-11l-6-2-18-2-7-6v-3h-2l-4-9-2-3v-3l-4-1-1-3v-7h-2l-2-10v-5l3 3v5l3-1-2-5-3-6-2-12z" fill="#6F5B64"/>
<path transform="translate(1256,477)" d="m0 0h12l4 2-2 5-2 2 5 10 3 4 1 12 3 1 2 10 1 1 1 11 6 7 1 9 3 6 1 1 1 15 1 4 3 4v4h6l8 5 7 11 1 1v5h-6l-3-2h-18l-10 4-5-2-2-26-3-12-1-8 2-17-1-12-1-2-2-18-2-4-2-6-1-8-3-6h-10l2-4-4-4z" fill="#728495"/>
<path transform="translate(1317,319)" d="m0 0 5 1 2 12h12l3 6-1 7h-2v8l5 4 1 3 1 20 11 2 3 5v6l10 5 1 2h-2l-1 3h-8v10l-4 4-4 2h-3v2l-8 2-8 1 5-5 10-5 4-3 3-7-1-10-4-1-1-4 2-1-9-3-13-1h-12l-3-6v-5l1-1 2-9 8-3 8-1v-2l-5-2-3-5 3-2 6-1-1-3-3-1-1-5-12-3-6-1-3 2-4-1-1-5-11 1-1 3h-2l-1 4v6l6 3-1 5-2 2-5 1-4-2-1-9-1-2v-6l2-4 8-1 5-4 9-4 7-2z" fill="#9B7E85"/>
<path transform="translate(1293,638)" d="m0 0 9 4h9l12 6 4 8 7 1 5-1 8 5 6 1 7-1 1-3h12l2 1 3 7 6 4 6 2v4l4 2 2 4 1 11 1 5-2 5 2 21h2l-1 7-3 5h-2l-2-3-3-1-1-5 3-2-1-4-4-2v-2h-12l-3-3v-3l3-2-1-4-2-1-4 1-3-2v-2h-8v-1l17-1 5 2 3 3 3 9 4 4h5l-1-13-1-15v-9l-5-3-6-4-1-1-7-1-3-7-5 1-5 2h-8l-2 3v6l5 4 2 1v2l9 1 8 4 3 2v3l-4 1-19-2 3-2-3-5v-4l-6-2-6-4-2-8-23 1-5-2-11-1-2-2-4-13-2-2-7-2v-4z" fill="#35363F"/>
<path transform="translate(1462,512)" d="m0 0h4l4 9 3 1 4 6 4 8 1 5v21l-4 16-3 14-2 6-1 4-3-1-5 1-5-2-3-21-3-16v-10l4-6 2-1 1-25z" fill="#6B616B"/>
<path transform="translate(1081,594)" d="m0 0 4 2 5-1 3-1h7l1 3 4 1 5 10 4 5 5 5 5 6 3 1v2l6 2 2 2 8 3 2 5 10 5 2 3 2-3h13l1 4-5 6 2 6 4 5 1 2 5 1v1l-8 2-3 2h-8l-4-10-5-1v-2l-3-1v9h-3l-5-10v-10h-5l-3-4v-3l-7 1-5-6-5-2 1-3-4-2-2-5-5-3-4-1v-2h-5l-2-3-2-6-11-4-1-2z" fill="#071826"/>
<path transform="translate(1373,452)" d="m0 0 17 1 37 3-3 1v2l6 2 5 3 2 5 1 1v22l-2 20h-2l-2 6-7 3h-11v-2l-8-1-8 3h-7l-4-2 1-7 4-4h2l1-3 3-2 3 1-4 4 6-1 4-3 7-2 14 1 1-3h-6l-1-4v-9l-4-2-2-7 2-1-1-7-5-4v-2l12 1v-2l-9-3-7-1-13-2-3-1-3 2v2l3 2h-8l-6-2 2-5h-7z" fill="#363741"/>
<path transform="translate(1467,719)" d="m0 0h1v8l-2 3-3 10-2 4h3l-2 6-3 1-1-7-2 1-4 9-5 8-2 1-3 7-3 3-4 1-3 9-4 1-1 2-3-1v-2h-3l-1 4-3 1v-2l-4 1-4-5-10-2-2-6-7-2-2-1-2-5-5 1v9l-6 1v6l-5 2-5 6h-2v2l-4 1v2l-2-1 2-3h3l1-4 4-1 1-8 1-5-2-4 1-2h5l3 4 1-12-2-2v-5l7-3 4-5 4 1v3l6 2 2 4 5 3 4 9v5h2l1 4h4l2-3 4 2 4 4 4 1 1-5-5-1-1-4 1-2 9-1 3-9 1-14h2v3l5 1 3-1v-7l3-4 7 1 5-4 3-9h2z" fill="#353640"/>
<path transform="translate(1374,263)" d="m0 0 17 2 8 4 3 3 5 3 1 4 7 1 3 3 1 9 2 7 9 6 3 9-1 2-2-3v-4l-10-3-2-5-1-7-4-1-2 1-1 3-4 1-1-1v-17l-2-2v-3h-2l-3-3-5-1v2l-3-1v-2l-8 1-3 1h-6l-1 3h-2v3l-6 3-9-1-2 4h-14l-7 3-5 2-6 1-3 3-5 2-2 3-8 3h-3v2l-9 4-12 3-6 5-12 7-5 4-1 2-9 5-3 3-6 3-5 5-3 1-1 2 1-5 4-4 3-1 7-8 3-2h4l2-6 3-3 3-5 5-3 5-6 9-4 8-3 3 2-4 5 9-1 1-7h-2l1-5 13 2 1-5 9-4 5-1v3l6-2 9-5h2l1-3 9-4 6 2 4 2 5-3 4-2h3v-5z" fill="#302F39"/>
<path transform="translate(1295,758)" d="m0 0 7 2 3 7 2 2-1 3h3l3 6v17l-1 4 1 6-2 2h-4l-2-4-3 3h-7l-1-4h-7l-9-3-7 1-1-9v-2l10-1v-3h-2l1-6h-4v-2h-5l-1 3h-1l-1-9 15-5h8v-3l3-1z" fill="#3D6C93"/>
<path transform="translate(1256,487)" d="m0 0h8l3 5 2 5v7l2 4 3 9 1 13 1 2 1 16-2 14 2 11 2 8 1 15v10l-3-3-2-6-2-7-1-7h-2v2h-2l-6-9-1-8 4 1-4-30-1-6-6-28-3-11 1-4 1-2z" fill="#4995BB"/>
<path transform="translate(1244,495)" d="m0 0 1 4-4 9-1 5v25l3 12-1 5-3 12-1 1-2 11-1 1v11l2 5 5 4 1 7 6 2 5 3 3 3 2 1v2l6-3 4 1 3 4 4 2-5 3-6 3-1-3-4-1-14-9-11-8-4-3-5 1-5 2-13 2-2-4 5-12 5-8 3-5 6-5 1-4 6-1v-15l1-2v-6l-1-1 1-29 6-12h2l2-9z" fill="#021843"/>
<path transform="translate(1410,599)" d="m0 0 2 2v9l-6 2-4 3-5 2-2 2-6 2h-8l-5-5-4-1-1 4v22l-1 10-5 1h-10l-1 3-2 1h-6l-5-5-2-1h-7l-2-1-1-3-7-5-13-1h-8l-2-1v-2l-4-2 1-4 7-4h8l8-4h3l-5 5-1 4h8l3 9 6 4 9 1 4 4h10l2-7-1-5-6-9-2-2v-6l1-1h9v-7l3-1 4 1-1-5-2-5 5-1 3 5 3 3 9 4h4l1-4 13-2 7-6z" fill="#6F5C65"/>
<path transform="translate(1351,548)" d="m0 0h12l2 3 1 8 4 3v2h2l4 7 8 3 2 3h11l9 3 1 7v6l-4 11-6 4h-12l-1 5-7-1-6-3-3-6-4 1 3 6-1 3h-6l-1 7-9 1v6l5 6 4 6-1 8-4 4h-8l4-2 3-2-1-5-3-6-3-2v-14l6-10 2-7 3-2 12-1 2 3h14l1-6-2-5-1-11-3-3h-7l-3-1-3-12-2-2-7-3-4-9z" fill="#7E676F"/>
<path transform="translate(1263,723)" d="m0 0 4 1h5l5 5 9 2 6 3 1 1 12 1 4-1 6 2 9 1 1 7-2 3v5 3l-8-1-7 3-1 2-12-1-3 4h-3v3l-16 3-2 2h-5l2 8 1-2h5v2h4l-1 6h2v3l-3 1h-7l1 3v8l7-2 9 3 7 1 1 3h7l4-5 1 7 7-1 1 3h2l2-5 2 4h4l2-4h2v3h3v3l2 1-8 1-5 1h-15l-2-2-7-1-7 1-5 1-3-1h-3l-1-5-3-3-7-1-1-1v-11l-4 1-4-3 2-9h2v-7l4-4 2-7 5-3 5 2 9 1v-2l7-2h11l3-2 3-5h8l1-9-14 1-15-1-2-1v-2l-3 1-19-4-3-9z" fill="#153B67"/>
<path transform="translate(1312,300)" d="m0 0 4 1-2 9 9-2 7-4 2 1h10l1 2 1 16h7v1l-8 1-1-1h-12l1-5 1-3-4 2-5-1-8 4-13 2-2 2-10 4-3 3h-7l-2-3-11 1v2h-4v-7l6-5 7-5 5-1 1-2h6v-2l10-2 5-5 8-2z" fill="#836F77"/>
<path transform="translate(1496,633)" d="m0 0 1 4 16-4 6 2-4 3-2 13-3 1v6l1 1-1 9-4 12-3 3h-3l-5 4h-4v-2l-3-1-3-5-2-2-1-11-1-5 3-10 6-15 2-1 2 1 1 6 8 4h2v-2l2-1 1-4-7 1-5-2z" fill="#33353F"/>
<path transform="translate(1338,448)" d="m0 0 15 1 19 2 2 3 6 1-1 5 16 2 2 1v2l4 1v3l-2 1-1 5h-8v-2l-18 1-10 8 1-4-7 1-2-5 1-1-7-5-3-5v-10l-5 4h-8l-1-5 2-2z" fill="#4C454E"/>
<path transform="translate(1227,609)" d="m0 0 9 2 5 3 1 2 7 4 5 4 4 1 2 4 4 2 2 2-3 4h-8l-4-1h-8l-6 1-18-2-3-1v-2l-5-1-3-5-2-1v-2h-2l-2-6 2-4 18-2z" fill="#01090E"/>
<path transform="translate(1343,435)" d="m0 0 25 1 5 4v5l-6 1h-5l-1 1 15 1 7-1h11l8 2 18 1 12 3 9 4 9 3 2 6v7l-2 4-7 1-1-11-2-3-9-6-13-2-38-3-18-2-7-2-8-1h-10l-1 1h-5l-4-1-7 3h-3l1-3 10-5 10-7z" fill="#081826"/>
<path transform="translate(1149,822)" d="m0 0h2l6 8 7 10 3 4 4 2 2 5 4 5 1 2 3 1 6 10 8 7 6 7 5 5 6 7v2h2v3h-22l-3-4v-2l-4-2-9-12-2-4-1-11-6-10-6-8-5-5-7-10-1-7z" fill="#3D6B92"/>
<path transform="translate(1261,325)" d="m0 0h2l1 8-7 7 1 10-3 6-3 3-1 3v10l-1 1-7 1v2l8 3-1 4-2 1v2l2 1-1 4-8-2-10 1-3 1h-11l-2 5-1-4 4-6 4-1v-2l8-5v-9l-2-6 15-9 6-1v-17l5-4 1-5z" fill="#3C6B93"/>
<path transform="translate(1525,522)" d="m0 0h6l6 4-1 4-3 1v-2h-16l-2 2-13 1-2 4h-2l-1 16 1 7 4 1v7l-4 6-2 6-4 2-2 6-2 19-2 10-2 14-1 3h-2l-1 6-4 6h-3v-10l2-12 2-22 1-2 2-18 1-5h1l1 10 3-1 2-1 2-6 3-2 1-14 1-29 4-6h10l9-2z" fill="#31333D"/>
<path transform="translate(1312,757)" d="m0 0h3v5l10-2 6 2v4l3 1-1 3 3 1 3 8v3l-3 5-2 1-3 5 1 7-5-1-3 1-4-2-5 1-1-3-3-3v-15l-2-6h-3v-3l-2-2 5-5z" fill="#6B616B"/>
<path transform="translate(1389,547)" d="m0 0 8 1v7l3 3 4 1 1-3h2l1-3 2 2-2 2 2 7v9l-2 1-2-1h-9l-5 3-16-4-4-6v-2h-2l-5-5-1-9 4-2h19z" fill="#6F5C65"/>
<path transform="translate(1294,617)" d="m0 0 4 2-1 3-9 4h-3l-2 4-1 3 3 1-1 3-6 5v10l-2 3v9l-3 7 13 2 8-2 9 1 2 1v3l-9 3-11 3v2l-5 3h-5v-2l-13-1-3-2v-2h-2l1-5 8-1 4-2 1-6-2-4-1-7v-11l-1-7 5-7 10-6 5-4z" fill="#2B537A"/>
<path transform="translate(1241,388)" d="m0 0 4 2-3 1v10l-3 5h-7l-2-1h-8l-4 4v7l8 5 6-2 3-3 5 1v11l7-1 2 16 1 3 2 20-5-1 1-16-2-5-4-1v-3l-5-2-3-6-6 1v2l-4-1v-2h2v-5l-7-3-1-5-3-3v-9l-2-4 1-7 3-6h13l1-1z" fill="#2D84BD"/>
<path transform="translate(1293,638)" d="m0 0 9 4h9l12 6 4 8 7 1 5-1-4 3-3 1-1 5 9-1 3 4 3 9-5-2-2-8-23 1-5-2-11-1-2-2-4-13-2-2-7-2v-4z" fill="#353640"/>
<path transform="translate(1538,539)" d="m0 0 3 1 5 6v2h2l4 10 1 1 2-2 1 12-2 2-2 4-4 9-7 10-3 4-1-9-3-5 2-1v-7l-2-6-1-14-2-4-1-9-3-1 2-2 5 1v10h3z" fill="#363741"/>
<path transform="translate(1311,456)" d="m0 0h6l-4 3-18 6-5 2h-3v2h-2l-1 6v8l5 17v2h2l1 10 4 1 6 12v3h-2l-5-8-7-7v-2h-2l-7-10-5-12v-2h-2v-2l5 2 3 1-3-11h-27l2 8 2 1-3 2-3 5-2 1 2-5 1-7-3-5 8-3 2-1 1-3h2v-2h-17l-1-2 19 1v4l6-2 1-1 11-1 11-5z" fill="#091825"/>
<path transform="translate(1227,347)" d="m0 0 1 2-4 9-10 14-3 11-4 4-3 9h-2l-1 8-1 1-7-1-2-1 4 14 2 4 13 4 2 4 4 2 7 8 1 6 5-3 2 1 3 9 3 5v5h2l2 4-3-1v-2l-4-2-7-12-1-3h-4l-2-6-10-4-1-3-7-2-2-5-9-3-9-5-1-3v-3l1-2h6l-1-6 2-3 3-1 3-7 3-3 2-4 5-5 5-9 5-10h2v-2l3-1 4-5z" fill="#031843"/>
<path transform="translate(1352,326)" d="m0 0h7l2 2 2 21 1 2v7h-2l1 11 8 7 4 2 5 10 8 5 3 6 6 8 1 4-2 2-9 1-4 4-7 2h-7v-1h5l2-5 7-4 2-5-1-7-7-6-4-3-1-7-7-1-4-5-4-4-2-9v-32l-1-3h-2z" fill="#7F6870"/>
<path transform="translate(1364,855)" d="m0 0 3 1-1 7 4-1v2l2 1h-3v9l-3 3-3 1-1 2-7-1-2-2-3 2h-4v-2l-4 4-8-1v2l3 1 2 9-6-1 2-4-7 1-1 5-1 7h-16v-5l4-1 3-3h2l1-3-2-2 4-1 1-4 3-6h2v-2l5-1v3l-1 3 6-1 4-1 2-6 3-4h7l1-3 6-3z" fill="#2C2C35"/>
<path transform="translate(1238,513)" d="m0 0h1l1 25 3 12-1 5-3 12-1 1-2 11-1 1v11l2 5 5 4 1 7 6 2 5 3 3 3 2 1v2l6-3 4 1 3 5-8-1h-6l-17-11-5-6-1-3-4-3-5 1-7 6-2-11v-5l7-5 4-2 6-13 3-18-3-7v-17l1-1 2-11z" fill="#163C68"/>
<path transform="translate(1107,548)" d="m0 0h23l12 2 11 2 14 3h19l4-1h7l-3 2-5 3-7 9-9 4-5-1-5-6 2-3 7-2 1-2-22-2-5-2h-8l-1-1-13-1-3 3h-15l-6 2h-9l-9 3-1 2v10h-2v-11l3-5 7-7 12 1z" fill="#081927"/>
<path transform="translate(1227,603)" d="m0 0 5 1 14 10 11 7 7 4 2 2 9-5 4-4 9-5 4-3 9-1 8 2 2 5v3l-9-3h-7l-9 4-7 5-2 3-6 2-7 9-5 2-5-1-6-1-3 2-11-1-10-3v-1h15l4-1h8l4 1h8l2-3-5-4-4-4-5-2-6-5-4-2v-2l-5-2-9-2-5 2-18 1v-1l9-2v-3l8-1z" fill="#071724"/>
<path transform="translate(1232,519)" d="m0 0h1v27l1 1v6l-1 3v12l-1 2-6 1-1 5-7 6-1 3-3 2-4-1-3-5-2-3-1-6-5-2 1-6 7-2 3-9 1-2h-6l3-2 10-5h2l-1 4-7 6-1 13v13h4l3-8 2-10 4-10 4-14 3-12z" fill="#071827"/>
<path transform="translate(1374,263)" d="m0 0 17 2 8 4 3 3 5 3 1 4 7 1 3 3 1 9 2 7 9 6 3 9-1 2-2-3v-4l-10-3-2-5-1-7-4-1-2 1-1 3-4 1-1-1v-17l-2-2v-3h-2l-3-3-5-1v2l-3-1v-2l-8 1-3 1h-6l-1 3h-2v3l-6 3h-6v-2l-7 2-4 1-1-3h-8l1-3 9-4 6 2 4 2 5-3 4-2h3v-5z" fill="#2F2E37"/>
<path transform="translate(1263,723)" d="m0 0 4 1h5l5 5 9 2 6 3 1 1 12 1 4-1 6 2 9 1 1 7-2 3v5 3l-8-1-7 3-1 2-12-1-3 4-4 2h-14v2l-4 2-1-2-2 1v-6l3-3 5-1 3 2 9 1v-2l7-2h11l3-2 3-5h8l1-9-14 1-15-1-2-1v-2l-3 1-19-4-3-9z" fill="#33353F"/>
<path transform="translate(1414,502)" d="m0 0h5l6 4 4 2h5l2-1v5h-2l-2 6-7 3h-11v-2l-8-1-8 3h-7l-4-2 1-7 4-4h2l1-3 3-2 3 1-4 4 6-1 4-3z" fill="#353640"/>
<path transform="translate(1265,762)" d="m0 0 1 2-1 3-6 3h-12l-1 13 2 7v4l6-2 4-2 1 4h4l1-2v5l-2 2h-3v3h7l3 1v2h3l3 3v2l-5-1v-2l-3 1-7-3-6 2-2-1 1-4-4-1-3-3v-3l-5 2-3-1-6 4-7-1 1-5 2-1 2-9 7-6h2l1-5h2l2-5 2-1h8l7-1z" fill="#010F28"/>
<path transform="translate(1351,429)" d="m0 0 7 1 13 4 10 6 12 2 2 1 1 3 6 2-4 1-4-1h-11l-13 1-9-1-1-2 7-1h6l-2-6-3-2-25-1-6 2-12 8-7 3-1 2 10-4 9 1 1-1h10l11 2v1l-20-1-9 3-6 1v2l-6 2-9 1-8 1 5-6h2l2-4 11-4 6-1 2-4 13-8z" fill="#34323B"/>
<path transform="translate(1214,370)" d="m0 0 2 4 4 3-2 5-4 1-3 9-3 6-5 1 1 7-3 4 2 8 4 4 10 4 8 1v3l-3 1-1 3h2l2 3 5-3 4 2 2 10 4 10 3 4v6l-4-2v-2h-2l-3-9-2-2-1-8-4 1-3 1-3-7-7-8-4-4-13-4-3-5-3-9v-5l9 1 2-8 2-1 3-9 3-3 3-11z" fill="#153B67"/>
<path transform="translate(1312,300)" d="m0 0 4 1-2 9 9-2 7-4 2 1h10l1 2 1 16h7v1l-8 1-1-1h-12l1-5 1-3-4 2-5-1-1 1-9 1-9-1-4-1 1-4 6-4h2l-2-3-6 1 2-4 8-2z" fill="#7E676F"/>
<path transform="translate(1332,517)" d="m0 0h6l3 7h3l1-2 5 1 4 6 6 3v3l-12 2-2 4h-11l-6-2-18-2-2-2v-3h7l1-3h9l1 3 4-1 2-9z" fill="#7D6770"/>
<path transform="translate(1136,577)" d="m0 0 4 1v2l5 1h9l1 4-4 5-3 1-3 5-5 5-8 1-1-3h-6l-2-2v-10l3-6 5-3z" fill="#153B67"/>
<path transform="translate(1297,679)" d="m0 0h12l15 2 12 6-8-1-5-2-8-1 1 5-1 2-9 3-6 5-4 2h-7l-7 2-5-3v-4l4-4 7-1 9-7 1-2-5 2z" fill="#232A39"/>
<path transform="translate(1434,317)" d="m0 0 2 2v3h2l4 6 2 9 3 4 5 16 3 7 3 3 2 7 1 12h2l3 6 4 3 2 8 2 5 2 26 1 12 1 3v10l-2 7-2-3v-12l-3-13v-17l-1-11-6-17-3-3-4-12-2-11-3-2-4-7-2-2-3-6-2-9-1-3h-3l1-13-5-1z" fill="#2B2C36"/>
<path transform="translate(1330,424)" d="m0 0h11l-5 5-12 1-7 3-3 5-5 2-7 4-6 10-1 2h-2l-2 5h-2v2l-9 4-2-1 5-3-1-4v-8l5-5v-2h2v-4l3-2 9-2 19-9z" fill="#826D75"/>
<path transform="translate(1198,528)" d="m0 0 4 2 13-1 4 3-1 4-7 2-11 2h-11l-2 1-14 2h-21l-12-2v-3l2-1 34-1 3-1 13-1 3-1 1-4z" fill="#081927"/>
<path transform="translate(1467,719)" d="m0 0h1v8l-2 3-3 10-2 4h3l-2 6-3 1-1-7-2 1-4 9-5 8-2 1-3 7-3 3h-4l1-13 1-16h2v3l5 1 3-1v-7l3-4 7 1 5-4 3-9h2z" fill="#343540"/>
<path transform="translate(1338,448)" d="m0 0 15 1 7 2 4 4 2 11-3 6h-10l-5-4-3-5v-10l-5 4h-8l-1-5 2-2z" fill="#728496"/>
<path transform="translate(1213,396)" d="m0 0 1 2 1 8 1 2v8l4 5v3l6 2 1 4-1 2h-2l1 2 3 1v-2l3-2 4 1 3 6 4 2v3l5 1 2 5-1 16 9 1v1h-13l-2-4-1-5-3-4-4-11-1-7h-4l-5 2-1-4h-2l1-4h3v-3h-8v-2h-2l-4-8-3-11v-7z" fill="#2C557C"/>
<path transform="translate(1453,489)" d="m0 0 9 2 3 3 9 4 3 3v5l-2-1-3-5-10-3-5-1-3 3-3 6-2 7-10 19-5 3-18 2-24 3h-17v-1l12-1 3-1 15-1 6-2 11-2 11-3 5-3h2v-22h1v8l4-2 2-12 3-5z" fill="#33343F"/>
<path transform="translate(1266,762)" d="m0 0h1v6l-3 1-1 4v8l-1-2h-2v5l-2 4 5 2h3l1 11 7 1 1 3 3 1-1 4-5-3v-2h-3v-2h-8l-2-1v-3l4-2v-3h-4l-1-3-4 2-1 1h-5l-3-11v-7l2-6 12-1 6-2z" fill="#021844"/>
<path transform="translate(1191,396)" d="m0 0h2l-1 5h-3l-1 9-6 1 1 3-1 4 6 2 12 6 2 4 7 3 3 3 8 3 2 7h4l4 6v2l2 1 3 6 4 4-2 1-5-5-4-5-2-5-5-2-5-5-7-3-3-2v-2l-6-1-7-4-6-4-7-5-3-3v-2h-2l1-4 7-7z" fill="#071827"/>
<path transform="translate(1361,192)" d="m0 0h15l4 1 3 9-1 3-10-1v2l-4 1-2-1v-3h2l-3-3-6 1h-12l-8-1v2l-15 1h-7v-2l13-4h9l12-3 1-1z" fill="#081927"/>
<path transform="translate(1248,643)" d="m0 0 13 2 5-1v5l-8-1-3-2-6-1v2l-6 3-2 2h-11l-4 4-4 6-5 1-2-2-9 2-3 3-6 2-5-1v-5h-2v2l-9 3 3-3 10-6 2-3 6 1 4 1 11-2 3-8 10-2 6 5 5-1z" fill="#010F28"/>
<path transform="translate(1268,756)" d="m0 0 7 1-2 2-9 5-3 3-9 1h-6l-6 6-1 4-4 1-2 4-2 1-2 9-2 1v-4h-5l-2-4-1-4-2-1 1-5 6-3 7-1 2-4 9-3 14-1 6-3 3-3z" fill="#071827"/>
<path transform="translate(1291,641)" d="m0 0h5l2 2 10 1 2 7 4-1v-2l5 1 7 9v2l-6 3-7 1v-3l-7 3-4-1-3-4 1-3 2-1-3-1-1-3-3-3-5-6z" fill="#2C2C36"/>
<path transform="translate(1535,605)" d="m0 0 1 3-7 20-6 10-4 2-3-4 2-1-6-1-9 3h-6l1-9 5-1 5 2 11-7 6-4h2l1-5 4-2z" fill="#232A39"/>
<path transform="translate(1275,301)" d="m0 0h4l2 8-8 6-12 7-5 4-1 2-9 5-3 3-6 3-5 5-3 1-1 2 1-5 4-4 3-1 7-8 3-2h4l2-6 3-3 3-5 5-3 5-6z" fill="#353640"/>
<path transform="translate(1134,840)" d="m0 0 2 3 3 5 7 6 3 6 4 4 4 6 9 11 10 11 6 8h-6l-11-11-7-8-9-10-7-9-1-3-3-1-4-13z" fill="#222A39"/>
<path transform="translate(1134,800)" d="m0 0h3l6 9 5 8 6 4 7 10 7 12 1 2-4-2-7-10-6-8-1-3h-2l-1 4-5 2-2-2-5-3-1-1-1 16h-1l-1-35z" fill="#48434E"/>
<path transform="translate(1356,601)" d="m0 0h8l1 6 2 3-1 3h-6l-1 7-9 1v6l5 6 4 6-1 8-4 4h-8l4-2 3-2-1-5-3-6-3-2v-14l6-10 2-7z" fill="#7F6870"/>
<path transform="translate(1294,606)" d="m0 0h9l9 1 3 3h10l1-2 1 5-2 6-7 6-11-1-6-2 1-4-7-2v-1h7l9 4-2-7-8-2-9 1-5 4-6 3-2-1 3-3h2l2-5z" fill="#4E464F"/>
<path transform="translate(1294,781)" d="m0 0 2 4 5 1 1 10 8-1 2 6-1 5-5 1-2-4-3 3h-7l-1-4h-7l-9-3-7 1-1-9v-2h6l-3 7h2l1-4 3 1v2h4v4l7-1 5-2 3-1-2-5-2-1z" fill="#2B547B"/>
<path transform="translate(1336,657)" d="m0 0h5l7 5 11 4v1h-8l-2 3v6l5 4 2 1v2l9 1 8 4 3 2v3l-4 1-19-2 3-2-3-5v-4l-6-2-7-14h-9v-5z" fill="#2D2C36"/>
<path transform="translate(1272,628)" d="m0 0 4 1-4 1-2 4-2 3 1 7v11l-2-4-1-7-5 2-13-2-8 7-6-1-4-4-7-1-1-1v-6h9l11 2 4-1 6-1 3 2 5-1 5-2z" fill="#081D46"/>
<path transform="translate(1287,470)" d="m0 0h2l2 6 3-1 5 1 1 29-4 7h-4l-1-3v-7h-2l-2-10v-5l3 3v5l3-1-2-5-3-6-2-12z" fill="#6B616B"/>
<path transform="translate(1249,645)" d="m0 0h6l3 2 7 1 2-2 4 19 1 5-4 4-7 2h-3l-1 4h2l-1 2-11 2-1-4 5-5 1-3 6-1v3l2-1-2-5-3-1-2 4-4 1 6-9 5 1 4 4 1-3-1-6 1-4-2-3-8-2-2-3z" fill="#071828"/>
<path transform="translate(1272,600)" d="m0 0 5 1 4 6 4 3-1 4-8 7-5-1-3-4-5 1-4 1v-2l-5-2v-2l-5-2-7-3v-5l9 6 5 3 3 1v2h2v-2l5-1v-5z" fill="#2E587E"/>
<path transform="translate(1313,557)" d="m0 0 4 2 5 4 3 5 3 17 1 11-2 3-3-1-4-6-4-16-4-14z" fill="#4F4750"/>
<path transform="translate(1419,461)" d="m0 0 9 1-2 4-4 3 2 3v4l2 1 4 3v4l-6 1 1 10h3v2h8v7l-2 5h-5l-9-5 4-1h4l1-3h-6l-1-4v-9l-4-2-2-7 2-1-1-7-5-4v-2l12 1v-2l-5-1z" fill="#2D2C36"/>
<path transform="translate(1337,701)" d="m0 0h8l2 2 6-2 3 1-11 6-14 6-6 1-3-1-1-5 6-2v-4l-25 3-13 2-10 3h-10l-5-1 3-2h14l7-3 5-1 23-2h19z" fill="#353640"/>
<path transform="translate(1487,651)" d="m0 0 4 1 7 10 3 8-1 8-3 5-2-1-2-5h-6l-3-5v-7l2-12z" fill="#4F4750"/>
<path transform="translate(1320,622)" d="m0 0 2 1-5 5-1 4h8l3 9 6 4-4 1-7-5-13-1h-8l-2-1v-2l-4-2 1-4 7-4h8l8-4z" fill="#6B616B"/>
<path transform="translate(1333,547)" d="m0 0 11 2 8 6 4 6v10l-3 1-9-5-5-2-1-1-1-7-5-6z" fill="#9B7E85"/>
<path transform="translate(1525,522)" d="m0 0h6l6 4-1 4-3 1v-2h-16l-2 2-13 1-2 4h-2l-1 16 1 7 4 1v7l-4 6-2 6-2-1 2-10 3-3h2l-1-3h-6l1-29 4-6h10l9-2z" fill="#32343E"/>
<path transform="translate(1304,800)" d="m0 0h1l1 7 7-1 1 3h2l2-5 2 4h4l2-4h2v3h3v3l2 1-8 1-5 1h-15l-2-2-7-1-7 1-5 1-3-1h-3l-1-5-2-2 6-1 5 3v-2l7-2 1 3h7z" fill="#222A38"/>
<path transform="translate(1279,482)" d="m0 0h2l1 3 2-2 5 17v2h2l1 10 4 1 6 12v3h-2l-5-8-7-7v-2h-2l-7-10-5-12v-2h-2v-2l5 2 3 1z" fill="#091927"/>
<path transform="translate(1345,482)" d="m0 0h7l2 13 4 5v3h-9l-9-3-5-4 2-5 5-7z" fill="#A4888F"/>
<path transform="translate(1255,667)" d="m0 0 4 1v4l4 1-5 1v-3l-6 1-1 5-4 4 1 2 10-2 7 3-4 1-7-1-9 3h-7v2l-13 6-10 1 1-4 5-3 14-5 2-3h2v-2l6-3 3-4 6-3z" fill="#031228"/>
<path transform="translate(1319,545)" d="m0 0h15v1l-10 1 4 8 3 3 1 10 2 4 1 12 1 3v12l-3 4-5-25-2-14-2-8-5-5-1-4z" fill="#7E676F"/>
<path transform="translate(1351,429)" d="m0 0 7 1 13 4 10 6 12 2 2 1 1 3 6 2-4 1-4-1h-11l-13 1-9-1-1-2 7-1h6l-1-7-2-2-10-1-19-2v-1z" fill="#35363F"/>
<path transform="translate(1402,273)" d="m0 0 4 1 2 5 7 1 3 3 1 9 2 7 9 6 3 9-1 2-2-3v-4l-10-3-2-5-1-7-4-1-2 1-1 3-4 1-1-1v-17l-3-5z" fill="#2D2C36"/>
<path transform="translate(1294,309)" d="m0 0 4 1-6 4h-2l-2 4-5 5-1 6h-9l-6 1v2h-4v-7l6-5 7-5 5-1 1-2h6v-2z" fill="#6B606A"/>
<path transform="translate(1325,877)" d="m0 0 4 1 4 4 1-2v2l3 1 2 9-6-1 2-4-7 1-1 5-1 7h-16v-5l4-1 3-3h2l1-3-2-2 4-1 1-4z" fill="#363741"/>
<path transform="translate(1294,671)" d="m0 0 9 1 2 1v3l-9 3-11 3v2l-5 3h-5v-2l-12-2v-4l15-1 5-4z" fill="#708194"/>
<path transform="translate(1232,528)" d="m0 0h1v18l1 1v6l-1 3v12l-1 2-6 1-1 5-7 6v-3l3-7 2-7 4-16 1-1 1-9z" fill="#010F29"/>
<path transform="translate(1254,476)" d="m0 0h21l3 3 2 4v5l-4-1-4-2v2h2l5 13 4 5 3 4v2h2l7 8 4 5-1 2-6-7-8-7-5-6-3-7-5-4-4-10 4-4v-2l-3-1h-12l-3 3 4 4-3 3-3-1 2-1-3-5v-4z" fill="#46414A"/>
<path transform="translate(1284,710)" d="m0 0h3v2l16-2h3l-2 4-9 4-7 2 1 8-4-2-1-1v-5h-17l-1-1v-5h8z" fill="#3D6C94"/>
<path transform="translate(1264,710)" d="m0 0h20l-4 3-6 2-8-1 1 5h14l3 1 2 6 3 3-5 2-7-1-5-5h-7l-2-4-4-2 1-5z" fill="#2A537A"/>
<path transform="translate(1482,594)" d="m0 0h3l1 2-1 16-2 13-2 11-4 7-3 1 1-17 2-5 1-9 1-2 1-15z" fill="#081927"/>
<path transform="translate(1387,848)" d="m0 0 6 2v4l-5 3-2 2 2 4v4h-2l-1 5 3 2-2 6-4-1-1-5-5-1v-4h2l-1-7-1-5 8-6z" fill="#2E2D36"/>
<path transform="translate(1496,633)" d="m0 0 1 4 16-4 6 2-4 3-2 9-5 1h-8l-8-6-2 5v4h-3l-2 14-3-4 1-7 7-18 2-1 2 1 1 6 8 4h2v-2l2-1 1-4-7 1-5-2z" fill="#353640"/>
<path transform="translate(1267,637)" d="m0 0 3 4 1 13 1 4 3-2 1 6-3 9 13 2-5 4-5 2h-13v4h9l1 2-11-1-3-2v-2h-2l1-5 8-1 4-2 1-6-2-4-1-7v-11z" fill="#1A406A"/>
<path transform="translate(1296,510)" d="m0 0 9 2 4 8 5 1h2l1 9-1 2h-7v2l-4-2-1-4h-2l-4-9-2-3v-3l-2-1h2z" fill="#665D67"/>
<path transform="translate(1238,513)" d="m0 0h1l1 25 3 12-1 5-3 12-1 1-1 8h-1l-1-15 2-7-1-7-2-4v-17l1-1 2-11z" fill="#173E69"/>
<path transform="translate(1452,457)" d="m0 0h7l2 1 1 10 10 2 5 6-3 1-11-1-10-2-1-1-1-15z" fill="#6C6772"/>
<path transform="translate(1294,667)" d="m0 0 10 2 14 2 5 4 10 1v2h2l1 4-8-1-9-2-14-1-5-1v-1h5v-3l-11-1-8 2v-2z" fill="#6A616B"/>
<path transform="translate(1332,517)" d="m0 0h6l3 7h3l1-2 5 1 4 6 6 3v3l-10 1v-3l-2-1h-13l-4 2-2-2 2-1 2-9z" fill="#7F6870"/>
<path transform="translate(1480,682)" d="m0 0 4 1 3 7-1 5-3 5-3 3h-2l-1 9-1 4 2 1-5 8h-3l2-11 3-9 1-13 3-9z" fill="#02090E"/>
<path transform="translate(1229,493)" d="m0 0 1 4-2 4-3 8-7 3-1 1-1 8-4 2-5-5 1-5-8-2 3-3 14-1 3 2 3-10 3-4z" fill="#081927"/>
<path transform="translate(1227,603)" d="m0 0 5 1 14 10 11 7v3l-3 1-9-7-4-2v-2l-5-2-9-2-5 2-18 1v-1l9-2v-3l8-1z" fill="#061627"/>
<path transform="translate(1219,458)" d="m0 0h7l4 4 1 9h-2l-1 3-8 1-5-3-1-2v-7z" fill="#4490B7"/>
<path transform="translate(1496,582)" d="m0 0 5 1 5 9 3 8 1 5-3 1-1 2-1-10-6-9-2-1v13l-5 13-2 1 1-24 2-8z" fill="#6B616B"/>
<path transform="translate(1263,723)" d="m0 0 4 1h5l5 5 9 2 3 5 3 2v2l17-1 1 2-4 1-15-1-2-1v-2l-3 1-19-4-3-9z" fill="#222A38"/>
<path transform="translate(1302,708)" d="m0 0h9l-2 4-1 3-6 3v4l4 2-1 3-6 1h-10l-2-9 16-5 3-4-3 1-16 1v-2z" fill="#6B616B"/>
<path transform="translate(1491,641)" d="m0 0 9 6h13l-1 5-7 3-1 6-5-1-2-1v-2l-5-2-3-5z" fill="#202837"/>
<path transform="translate(1179,586)" d="m0 0 5 1-1 5-10 2-1 2-5 2-5 7-3 7h-2l-3-3-2-1 1-5 1-1 7-1 1-8 8-6h8z" fill="#153B67"/>
<path transform="translate(1472,838)" d="m0 0 4 5 6 7v2l3 1 8 13 8 5-2 2-4-1-6-4-16-16-1-2z" fill="#081927"/>
<path transform="translate(1369,699)" d="m0 0 8 1 4 4 3 9 4 4h5l2-1v5h-3l-6-2v-2h-12l-3-3v-3l3-2-1-4-2-1-4 1-3-2v-2h-8v-1z" fill="#2E2D36"/>
<path transform="translate(1307,438)" d="m0 0 3 1-8 5-6 10-1 2h-2l-2 5h-2v2l-9 4-2-1 5-3-1-4v-8l4-3h10l2-5 4-3h5z" fill="#695F69"/>
<path transform="translate(1191,396)" d="m0 0h2l-1 5h-3l-1 9-6 1 1 3-1 4 6 2 12 6 2 4 7 3 3 3 8 3 1 5-1-2-7-1-6-6-10-3v-2l-7-2-1-5-6-1-4-7 2-6z" fill="#010F28"/>
<path transform="translate(1171,847)" d="m0 0 6 2 3 5 5 8 3 1 1 5 5 4 4 5 3 3 1 2 5 2 9 7-1 4 1 3 2 2h-4v-3h-2l-9-12-8-7-4-5-5-4-5-8v-2l-4-1-4-6-2-2z" fill="#07182B"/>
<path transform="translate(1373,452)" d="m0 0 17 1 28 2-1 5 2 1-4-1-7-1-13-2-3-1-3 2v2l3 2h-8l-6-2 2-5h-7z" fill="#2D2C36"/>
<path transform="translate(1418,813)" d="m0 0 2 1v6l-2 2-5 15-3 2-2 4h-2l-2 9-1 4-4 2-2 2 1-4 3-3-1-6 2-4 2-1 1-5h-3l1-4 4-1h4l-1-5 6-7z" fill="#34353F"/>
<path transform="translate(1326,767)" d="m0 0 3 3h6l2 5 3 6-4 6h-8l-1-1v-7h-2v-11z" fill="#826D75"/>
<path transform="translate(1147,482)" d="m0 0 5 1v12l8 10v3l-8-1-5-5-4-16z" fill="#061627"/>
<path transform="translate(1137,856)" d="m0 0 5 5 14 16 9 10 7 8 4 5h-5l-18-20-11-12-5-6-1-5z" fill="#081927"/>
<path transform="translate(1135,841)" d="m0 0 6 5 5 4 4 6 6 7 5 8 9 11 4 5v2h2l8 10h-3l-13-14-11-14-4-5-2-4-4-4-2-4-4-3v-2l-4-2z" fill="#153B67"/>
<path transform="translate(1295,758)" d="m0 0 7 2 1 4-5 3-2 4h-7l-1-3-9 1h-4v3h-6v4h5v1h-5l-1 3h-1l-1-9 15-5h8v-3l3-1z" fill="#295179"/>
<path transform="translate(1293,638)" d="m0 0 9 4h9l12 6 3 6-1 3-4-5-3-3-3 1-2 3v-2h-3l-2-7h-10l-2-2h-5l5 6v2l2 1-4-1-2-2-7-2v-4z" fill="#34353F"/>
<path transform="translate(1397,464)" d="m0 0 5 1 6 5 4 9v6l-6-2-14-7v-1h6v-5l3-3z" fill="#35353F"/>
<path transform="translate(1244,495)" d="m0 0 1 4-4 9-1 5-2 1-2 11-1 1v17l3 7-1 9-2 9h-2l-1-13 1-2v-6l-1-1 1-29 6-12h2l2-9z" fill="#021844"/>
<path transform="translate(1346,677)" d="m0 0 5 1 5 3v2l9 1 8 4 3 2v3l-4 1-19-2 3-2-3-5v-4l-6-2z" fill="#33343D"/>
<path transform="translate(1399,766)" d="m0 0 4 2 2 2v6l5 3h2l3 5 5 2-1 2h-2v-2l-4 1-4-5-10-2-2-6-7-2-2-1 1-4 7 1z" fill="#2E2D36"/>
<path transform="translate(1302,528)" d="m0 0h2l3 5 4 3 18 2 6 2v2h11l-1 4h-6l-4-2-14-1-11-3-7-8z" fill="#47424B"/>
<path transform="translate(1370,270)" d="m0 0 1 2-2 5-5 4h-6v-2l-7 2-4 1-1-3h-8l1-3 9-4 6 2 4 2 5-3z" fill="#2E2D36"/>
<path transform="translate(1283,554)" d="m0 0 2 2 1 5v23l2 10 2 4-6-3-1 2-2-26-2-2h2v-13z" fill="#A68990"/>
<path transform="translate(1256,477)" d="m0 0h12l4 2-2 5-2 2 2 6-6-4h-10l2-4-4-4z" fill="#3D6C94"/>
<path transform="translate(1473,411)" d="m0 0h1l2 22 1 13 1 3v10l-2 7-2-3v-12l-3-13 1-22z" fill="#242A38"/>
<path transform="translate(1377,767)" d="m0 0 2 3v2h2v4l-6 1v6l-5 2-5 6h-2v2l-4 1v2l-2-1 2-3h3l1-4 4-1 1-8 1-5-2-4 1-2h5l3 4z" fill="#353640"/>
<path transform="translate(1348,476)" d="m0 0h7l1 3-2 3-9-1-1 3-11 7-7 6-4 3-2-1 7-8 7-6h3v-6l3-2h6z" fill="#262A35"/>
<path transform="translate(1347,450)" d="m0 0h11l6 5 2 11-3 6h-10l-5-4-1-5 6 5 6-1 3-4-1-6-5-3h-6l-2 7-2 1z" fill="#A0848B"/>
<path transform="translate(1291,641)" d="m0 0h5l2 2 10 1 4 8-1 5h-4l-2-3-6-2-4-4-5-6z" fill="#081927"/>
<path transform="translate(1434,317)" d="m0 0 2 2v3h2l4 6 2 9 3 4 5 16-3-1-3-3v-2l-3-1-2-9-1-3h-3l1-13-5-1z" fill="#2B2C36"/>
<path transform="translate(1268,656)" d="m0 0h1l2 9 1 5-4 4-7 2h-3l-1 4h2l-1 2-11 2-1-4 5-5 1-3 6-1v3l9-3v-8z" fill="#021843"/>
<path transform="translate(1364,456)" d="m0 0 2 1 1 5h9l4 2-3 6-6 1-3 5-4 1-1-3-8-1v-1l8-1 2-7z" fill="#705C65"/>
<path transform="translate(1227,347)" d="m0 0 1 2-4 9-10 14-3 11-4 4-2 8-2-4-1-6 6-9 7-14h2v-2l3-1 4-5z" fill="#152133"/>
<path transform="translate(1331,450)" d="m0 0 2 1-1 5 7 1v1l-9 2-14 3h-9v-3l12-4 4-1v-2z" fill="#524851"/>
<path transform="translate(1213,396)" d="m0 0 1 2 1 8 1 2v8l4 5v3l5 1v1h-8l-4-4-5-16v-7z" fill="#3D6C94"/>
<path transform="translate(1360,478)" d="m0 0h3l-2 6-3 1-2-1v8l7 9v2h6l2 2-1 3-3-3v2l-4 1-9-2 3-2h4l-5-8-3-4-1-3v-7h-7v-1h9l1-2z" fill="#5A4F57"/>
<path transform="translate(1294,757)" d="m0 0h9v1l-8 1-3 4-4 2h-14v2l-4 2-1-2-2 1v-6l3-3 5-1 3 2 9 1v-2z" fill="#222A39"/>
<path transform="translate(1281,649)" d="m0 0h4l1 11 5 2v3l-7 4h-4l-2-8-3-3v-2l3-2h3z" fill="#333540"/>
<path transform="translate(1334,531)" d="m0 0h14l3 2-1 3-2 1-2 4h-9l-1-5-9-1v-2h6z" fill="#836F77"/>
<path transform="translate(1276,493)" d="m0 0 5 5 6 5 2 3 2-4 1 10 4 1 6 12v3h-2l-5-8-7-7v-2h-2l-7-10-3-6z" fill="#383841"/>
<path transform="translate(1312,300)" d="m0 0 4 1-2 9 2 1-3 2h-3v2l-6 3-4-1 1-4 6-4h2l-2-3-6 1 2-4 8-2z" fill="#705C65"/>
<path transform="translate(1437,526)" d="m0 0 3 1-5 4-8 3-25 4-10 1h-17v-1l12-1 3-1 15-1 6-2 11-2 11-3z" fill="#081927"/>
<path transform="translate(1226,476)" d="m0 0 5 1v6h-3l-1 4-4 2-9-4-2-2v-4h9l4-1z" fill="#071827"/>
<path transform="translate(1423,491)" d="m0 0h2v4h3v2h8v7l-2 5h-5l-9-5 4-1h4l1-3h-6l-1-4z" fill="#2C2C36"/>
<path transform="translate(1439,460)" d="m0 0 9 1 2 1 2 11-2 4-7 1-1-11z" fill="#02090E"/>
<path transform="translate(1339,278)" d="m0 0 7 1 2 2 4-2h6l-3 1-2 4h-14l-7 3-5 2-6 1-1 2h-2l2-4 6-1 1-3z" fill="#353640"/>
<path transform="translate(1461,685)" d="m0 0 4 2 7-1 1 2-1 10-2 3h-4v-7l-3 3-4-1z" fill="#6B616B"/>
<path transform="translate(1340,433)" d="m0 0h9l17 1 5 2 2 4-5-3-25-1-6 2-12 8-13 4-5 3 2-4 11-4 6-1 2-4z" fill="#32323C"/>
<path transform="translate(1255,586)" d="m0 0h6l6 7 1 4-5 4-5-2-3-5z" fill="#4A96BB"/>
<path transform="translate(1258,313)" d="m0 0 1 2-4 10-1 3-9 6-5 3-5 5-4 3h-2l-1 2 1-5 4-4 3-1 7-8 3-2h4l2-6 3-3z" fill="#1F2837"/>
<path transform="translate(1340,485)" d="m0 0 2 1-5 7v4l4 3 8 2 9 1-4-7-1-4 5 5 3 5v2h-13l-9-2-6-2-8-1 5-4 7-8z" fill="#725F68"/>
<path transform="translate(1269,484)" d="m0 0 2 4 3 2v2h2l4 9 6 8v2h2l7 8 4 5-1 2-6-7-8-7-5-6-3-7-5-4-4-10z" fill="#4E464F"/>
<path transform="translate(1297,679)" d="m0 0h12l4 2-2 1v5l-5 2-7 1-2-1 2-7-6 1z" fill="#353640"/>
<path transform="translate(1554,557)" d="m0 0h1l1 12-2 2-2 4-4 9-7 10-3 4v-9l1-2h4l2-6 7-15z" fill="#222A39"/>
<path transform="translate(1295,609)" d="m0 0 12 1 3 2 1 7-9-3h-10l-3-1 1-4z" fill="#071724"/>
<path transform="translate(1272,600)" d="m0 0 5 1 4 6 4 3-1 4-4 3-6 1-2-2-1-5 4-2-1-5-3-3z" fill="#3C6B93"/>
<path transform="translate(1303,710)" d="m0 0h3l-2 4-9 4-10 1-1-1v-5l8-2z" fill="#728496"/>
<path transform="translate(1338,448)" d="m0 0 15 1v1h-6v14l-2-1v-10l-5 4h-8l-1-5 2-2z" fill="#7D8392"/>
<path transform="translate(1307,610)" d="m0 0 4 1 2 5 6 2-1 5-2 1h-9l-6-2 1-4-7-2v-1h7l9 4-2-7z" fill="#343540"/>
<path transform="translate(1321,461)" d="m0 0h7l2 2v3l-15 3-9-2 1-3z" fill="#081927"/>
<path transform="translate(1558,448)" d="m0 0 4 1 2 11 1 14-2 1-4-4-1-14-1-6z" fill="#212938"/>
<path transform="translate(1509,608)" d="m0 0 3 1-1 11-1 2h-3v7l-8-1 2-5 7-14z" fill="#363741"/>
<path transform="translate(1195,492)" d="m0 0h7l5 2v7l-7 1-1-4-4 1-5 4-4 1 4-6h3l1-5z" fill="#09213F"/>
<path transform="translate(1318,283)" d="m0 0h3v3h5l-3 2-4 2-1 3-3 1h-11l2-1 1-5 9-4z" fill="#272933"/>
<path transform="translate(1287,732)" d="m0 0 5 2 1 1 12 1 4-1 11 3v2l-10 2-1-2h-17l-4-4z" fill="#353640"/>
<path transform="translate(1287,467)" d="m0 0 3 1-3 1zm-2 2h2l2 14 5 9-1 3h-3l-2-7v10h-1l-4-15v-8z" fill="#4A434C"/>
<path transform="translate(1195,657)" d="m0 0 4 2 3 2h8l-4 2-3 3-6 2-5-1v-5h-2v2l-9 3 3-3z" fill="#081927"/>
<path transform="translate(1248,643)" d="m0 0 13 2 5-1v5l-8-1-3-2-6-1v2l-6 3-2 2h-11l-4 2-3-5 5-3 4 1 4 3 5-1z" fill="#011028"/>
<path transform="translate(1286,443)" d="m0 0 3 1h-2l1 3-5 4v8l1 4-3 1-5-4 1-9 5-5z" fill="#728496"/>
<path transform="translate(1340,456)" d="m0 0h3l1 9-14 1-2-4-2-2 6-2 7-1z" fill="#302F38"/>
<path transform="translate(1316,702)" d="m0 0h11v1l-25 3-13 2-10 3h-10l-5-1 3-2h14l7-3 5-1z" fill="#31333E"/>
<path transform="translate(1386,861)" d="m0 0 2 2v4h-2l-1 5 3 2-2 6-4-1-1-5-5-1v-4h2v-7l2 2v5h2v-3h2v-2h2z" fill="#2C2D36"/>
<path transform="translate(1264,710)" d="m0 0h5l-4 3h-2l1 7 14 4 6 5v1h-7l-5-5h-7l-2-4-4-2 1-5z" fill="#153B67"/>
<path transform="translate(1347,866)" d="m0 0 4 1-3 2-1 7h-3l-2 5-9-1v2l-3-1-2-3-3-2 3-1v-2l5-1v3l-1 3 6-1 4-1 2-6z" fill="#2F2E37"/>
<path transform="translate(1061,613)" d="m0 0 3 2 2 4 2 1 3 7h6v5l-1 1h-7l-7-14z" fill="#051D48"/>
<path transform="translate(1342,693)" d="m0 0 17 1 3 2-8 3h-13l-2-1 1-4z" fill="#02090E"/>
<path transform="translate(1371,537)" d="m0 0h16v1l5 1v1l-30 2h-14v-2z" fill="#363741"/>
<path transform="translate(1427,452)" d="m0 0 11 3 5 3 7 2 2 6v6h-1l-1-10h-8v-2l-2 1-1 3-3-3-5-3-5-2z" fill="#0A1825"/>
<path transform="translate(1244,795)" d="m0 0h2v3l6 2 2 2-1 4 5-1 1 4-2 1h-6l-3-1-4-1h2l-1-11-2-1z" fill="#071827"/>
<path transform="translate(1274,671)" d="m0 0 2 1 10 1-5 4-5 2h-13v4h9l1 2-11-1v-6l3-2 9-2z" fill="#2A537B"/>
<path transform="translate(1367,505)" d="m0 0 3 1-1 5-6 2-10-1-5-3v-3l19 1z" fill="#7F6870"/>
<path transform="translate(1300,294)" d="m0 0h13l-2 4-8 3h-3v2l-6 1v-5l5-3z" fill="#363741"/>
<path transform="translate(1345,796)" d="m0 0h3l1 4v2l5-2 2-4 1 3-5 6h-3v2l-4 2-3-2-2 4-3 1-3-2 6-2 1-5 3-2z" fill="#363741"/>
<path transform="translate(1337,701)" d="m0 0h8l2 2 6-2 3 1-11 6-6 2h-7l2-5 5-1 1-2z" fill="#2F2E37"/>
<path transform="translate(1306,463)" d="m0 0h5l-4 2-1 2 9 1 9-1-3 2-6 2-3 6-4 1v-8l-12-2 1-2z" fill="#34353E"/>
<path transform="translate(1356,700)" d="m0 0h12l8 3 3 5-2 4-1 3 2 1-4 1-3-3v-3l3-2-1-4-2-1-4 1-3-2v-2h-8z" fill="#353640"/>
<path transform="translate(1373,452)" d="m0 0h7v2h9v4 2l3 2h-8l-6-2 2-5h-7z" fill="#353640"/>
<path transform="translate(1438,758)" d="m0 0h3v2h6v2l-2 1-3 7-3 3h-4l2-14z" fill="#222A39"/>
<path transform="translate(1303,797)" d="m0 0 4 1v6l1 3h-2l-2-4-3 3h-7l-1-4-2-1 4-2h1z" fill="#153B67"/>
<path transform="translate(1316,648)" d="m0 0 4 2 6 8v2l-6 3-6-1 2-4z" fill="#081927"/>
<path transform="translate(1307,305)" d="m0 0 2 1v3l-8 5v3l3 2-5 2h-5l2-5 2-4-2-1 3-4z" fill="#7E676F"/>
<path transform="translate(1200,890)" d="m0 0 4 1 3 3 2-2 3 3v2h2v3h-12l-3-9z" fill="#6D7F92"/>
<path transform="translate(1271,678)" d="m0 0 9 1 1 5-1 1h-7l-1-1-9-1v-4z" fill="#4893B9"/>
<path transform="translate(1237,438)" d="m0 0 5 2v3l5 1 2 5-1 17h-3l-1-3 1-15-7-5z" fill="#3D6C94"/>
<path transform="translate(1495,546)" d="m0 0h1l2 13 4 1v7l-4 6-2 6-2-1 2-10 3-3h2l-1-3h-6z" fill="#34353F"/>
<path transform="translate(1348,867)" d="m0 0 7 1-2 3h-2l1 3 6-2 2 4-3 2-2 1-2-2-3 2h-4v-2l-2-1h3l-1-3z" fill="#353640"/>
<path transform="translate(1287,487)" d="m0 0 3 3v6h3l1 10h2l1 4-1 2h-4l-1-3v-7h-2l-2-10z" fill="#7E6C75"/>
<path transform="translate(1311,681)" d="m0 0h13l12 6-8-1-5-2-8-1 1 5-1 2h-6l-1-2 2-1v-5z" fill="#2E2D36"/>
<path transform="translate(1261,619)" d="m0 0h8l7 2-2 3-9 4-1-3-4-1-2-4z" fill="#222A39"/>
<path transform="translate(1553,385)" d="m0 0 4 2 5 17v8l-3-4-6-19z" fill="#222A39"/>
<path transform="translate(1345,482)" d="m0 0h7v7l-2-3-1-2-4 1-4 5 2 5-3 1 2 3 6 2-3 1-5-2-5-4 2-5 5-7z" fill="#947980"/>
<path transform="translate(1326,505)" d="m0 0h9l7 2-1 4-4 1-7-1-5-3z" fill="#7F6870"/>
<path transform="translate(1313,590)" d="m0 0 4 5 5 7v5h-6l-3-2 1-9z" fill="#90777F"/>
<path transform="translate(1375,477)" d="m0 0h3l-1 5-5 6h-6v-7l5-1z" fill="#61545D"/>
<path transform="translate(1364,461)" d="m0 0 2 3-2 7-1 1h-10l-5-4-1-5 6 5 6-1z" fill="#9B8087"/>
<path transform="translate(1297,677)" d="m0 0 22 1 5 2v1h-11l-4-1h-12l-4 3-8 1v-2z" fill="#4F4750"/>
<path transform="translate(1061,593)" d="m0 0h3l3 8v5h2v4h-2l-5-5-3-5 1-3z" fill="#010F28"/>
<path transform="translate(1338,482)" d="m0 0h5l-1 3-10 7-6 5-4 3-2-1 7-8 7-6 3-1z" fill="#202732"/>
<path transform="translate(1406,469)" d="m0 0 4 4 2 6v6l-6-2-6-3 1-2 5-2z" fill="#2D2C36"/>
<path transform="translate(1351,429)" d="m0 0 7 1 11 3 1 2h-10l-19-2v-1z" fill="#363741"/>
<path transform="translate(1355,488)" d="m0 0 4 3 3 1 5 7v2l4 2 1 3 2 1-3 1-2-4-6-1-4-6-4-5z" fill="#33333D"/>
<path transform="translate(1279,710)" d="m0 0h5l-4 3-6 2-8-1 2 7-5-1v-7l3-2z" fill="#275077"/>
<path transform="translate(1437,274)" d="m0 0 8 5 5 5 5 6 2 9-4-4-3-6-5-4-5-6-3-1z" fill="#02090E"/>
<path transform="translate(1204,883)" d="m0 0 4 2 8 6-1 4 1 3 2 2h-4v-3h-2l-8-10z" fill="#0B1C2B"/>
<path transform="translate(1510,659)" d="m0 0h1l-1 9-4 12-3 3-1-1 1-7 6-15z" fill="#202938"/>
<path transform="translate(1270,664)" d="m0 0 4 2v8l-11 4-1 5-3-1v-2h-2l1-5 8-1 4-2 1-6z" fill="#153B67"/>
<path transform="translate(1273,277)" d="m0 0h3v3l-7 2-5 5-4 1-1-4 6-5z" fill="#081927"/>
<path transform="translate(1275,631)" d="m0 0 9 2v4l-7 3h-4l1-8z" fill="#3C6B93"/>
<path transform="translate(1239,538)" d="m0 0h1l3 12-1 5-3 12-1 1-1 8h-1v-14l2-2 1-5z" fill="#2C557D"/>
<path transform="translate(1302,528)" d="m0 0h2l3 5 3 4 10 2 14 2v1h-18l-7-3-6-7z" fill="#091927"/>
<path transform="translate(1245,680)" d="m0 0 3 3 10-2 7 3-4 1-7-1-9 3h-7l2-5z" fill="#031430"/>
<path transform="translate(1418,813)" d="m0 0 2 1v6l-2 2-3 8-3 3-1 2-4-2 4-1-1-5 6-7z" fill="#302F38"/>
<path transform="translate(1080,651)" d="m0 0h1v17l1 5-5-5-3-9 4 1v-6z" fill="#021844"/>
<path transform="translate(1507,571)" d="m0 0h3v7l-4 2-2 4-3-4 1-4z" fill="#0A1A27"/>
<path transform="translate(1227,349)" d="m0 0h10l1 3-8 2-3 1-1 5-7 5 2-4 4-6z" fill="#153B67"/>
<path transform="translate(1262,710)" d="m0 0v3l-2 2 1 5 2 1-1 4-3-4-10-4-2-3 12-1z" fill="#021843"/>
<path transform="translate(1543,544)" d="m0 0 3 2v2h2l4 10v3l-4-2h-3z" fill="#222A38"/>
<path transform="translate(1393,725)" d="m0 0h3l1 3v7l-3 1-2-3-3-1-1-5z" fill="#303039"/>
<path transform="translate(1249,645)" d="m0 0h6l3 2 7 1 2-2 1 6-1 7-2-4-2-3-8-2-2-3z" fill="#071726"/>
<path transform="translate(1294,617)" d="m0 0 4 2-1 3-9 4-4-1v-3z" fill="#6C6A76"/>
<path transform="translate(1124,535)" d="m0 0 8 2 3 2v2l-2 1h-7l-5-2 2-4z" fill="#081927"/>
<path transform="translate(1407,504)" d="m0 0h8l-1 5-4 3-6-1-1-2h2z" fill="#4C454E"/>
<path transform="translate(1193,875)" d="m0 0 5 5 6 5 4 5v5l-4-2v-2h-5v-2h2l-5-8-3-4z" fill="#535869"/>
<path transform="translate(1376,857)" d="m0 0 7 1v2l3 1v3h-2v2h-2v3h-2l-1-7-3-1z" fill="#3B3A43"/>
<path transform="translate(1529,540)" d="m0 0 5 1v10h4l-1 8-2 1-4-8-1-9-3-1z" fill="#272C38"/>
<path transform="translate(1341,534)" d="m0 0 5 1v6h-9l-1-5-2-1z" fill="#758394"/>
<path transform="translate(1311,456)" d="m0 0h6l-4 3-13 4h-11l3-2z" fill="#091927"/>
<path transform="translate(1270,778)" d="m0 0 5 1 1 1v7l-1 1h-6v-4z" fill="#0C1726"/>
<path transform="translate(1191,485)" d="m0 0 7 2 2 3 3 1-1 2h-7l-2 5-3-1 2-9h-2z" fill="#061727"/>
<path transform="translate(1253,475)" d="m0 0h20v1l-23 1 2 8 2 1-3 2-3 5-2 1 2-5 1-7-3-5z" fill="#202A39"/>
<path transform="translate(1228,442)" d="m0 0 3 1 3 9 3 5v5h2l2 4-3-1v-2l-4-2-3-6-2-10-2-2z" fill="#222A39"/>
<path transform="translate(1065,616)" d="m0 0 6 3 4 1 2 4v3l-6 1-3-5v-3l-3-1z" fill="#011028"/>
<path transform="translate(1342,433)" d="m0 0 24 1 5 2 2 4-5-3-28-1z" fill="#2E2D36"/>
<path transform="translate(1055,589)" d="m0 0 4 2 2 2v5h-1l-1 9-2-2-2-8z" fill="#0B1D40"/>
<path transform="translate(1497,561)" d="m0 0 4 1v3l-4 3-3 12-5 2 2-5 2-1 2-14z" fill="#2C2C36"/>
<path transform="translate(1405,837)" d="m0 0 2 1-1 7-2 4v6l-5 3-2 2 1-4 3-3-1-6 2-4 2-1z" fill="#302F38"/>
<path transform="translate(1226,637)" d="m0 0 14 1 13-1 10 1-4 3-5-1-6-1-3 2-11-1-8-2z" fill="#010F29"/>
<path transform="translate(1443,337)" d="m0 0 4 4 5 16-3-1-3-3v-2h-2v-9z" fill="#222A39"/>
<path transform="translate(1288,613)" d="m0 0 1 2h3v2l-8 4-3 2v-2l-6 2 2-4z" fill="#0E1D2B"/>
<path transform="translate(1312,755)" d="m0 0m-2 1h2l-2 6-3 4-4-1-1-4-6-2v-1l7 1 4 1 1-3z" fill="#4F4750"/>
<path transform="translate(1511,568)" d="m0 0h1v8l-4 11-1 4-2-2-1-5 2-4 3-2 1-7-2-1z" fill="#33343F"/>
<path transform="translate(1484,541)" d="m0 0 2 4 1 17-1 10 2 1-6 3 2-13z" fill="#30313C"/>
<path transform="translate(1347,537)" d="m0 0h20l-1 2-19 1zm-1 3m-11 1h11v1h-11z" fill="#504851"/>
<path transform="translate(1284,297)" d="m0 0 4 2-4 5 3 1-7 3-1-4v-3l-2-1z" fill="#2E2D36"/>
<path transform="translate(1183,864)" d="m0 0 4 1 5 5 6 7 6 6-1 2-8-7-4-5-5-4z" fill="#282F3E"/>
<path transform="translate(1318,804)" d="m0 0 2 4h4l2-4h2v3h3v3l2 1h-3l-1-2-1 1-15 1 1-4v2h2z" fill="#363741"/>
<path transform="translate(1488,641)" d="m0 0h1v8l1 2h-3l-2 14-3-4 1-7z" fill="#363741"/>
<path transform="translate(1289,640)" d="m0 0h6l-4 3 5 5v2l2 1-4-1-2-2-7-2v-4z" fill="#2F323E"/>
<path transform="translate(1393,188)" d="m0 0 6 1 3 2 7 2 7 4v5l-3-1-1-3-5-3-7-2-7-4z" fill="#02090E"/>
<path transform="translate(1255,667)" d="m0 0 4 1v4l4 1-5 1v-3l-6 1-1 5-4 3-2-1 3-7 6-3z" fill="#010F28"/>
<path transform="translate(1358,473)" d="m0 0h5l1 4 3 1-5 4 1-4-7 1-2-5z" fill="#4B444D"/>
<path transform="translate(1326,767)" d="m0 0 3 3 5 1 1 3-6 2-2 3h-2v-11z" fill="#836E76"/>
<path transform="translate(1268,656)" d="m0 0h1l2 9 1 5-4 4-5 1 2-4h2v-8z" fill="#222A39"/>
<path transform="translate(1227,603)" d="m0 0 5 1 7 5-2 1-4-2-8-1-4 2-8-1v-1l8-1z" fill="#010F29"/>
<path transform="translate(1422,478)" d="m0 0 7 1 1 5-4 1-6-2v-4z" fill="#31303A"/>
<path transform="translate(1463,735)" d="m0 0 1 3-3 6h3l-2 6-3 1-1-7-2-1 4-5z" fill="#222A38"/>
<path transform="translate(1243,635)" d="m0 0h8l2 2-15 2-14-2v-1h15z" fill="#071827"/>
<path transform="translate(1269,484)" d="m0 0 2 4 3 2v2h2l2 4-1 4-6-5-4-10z" fill="#524A53"/>
<path transform="translate(1217,426)" d="m0 0h9l1 4-1 2h-2l1 2 3 1v-2l3-2 3 1-6 5-4 1-1-4h-2l1-4h3v-3h-8z" fill="#325D84"/>
<path transform="translate(1331,770)" d="m0 0 5 1 1 7-5-1-2 4-3 2 1-7 2-2 4-1v-2z" fill="#7F6870"/>
<path transform="translate(1366,686)" d="m0 0 6 1 4 3v3l-4 1-7-1z" fill="#2E2D36"/>
<path transform="translate(1228,646)" d="m0 0 4 1 4 3v2h-6l-4 2-3-5z" fill="#061627"/>
<path transform="translate(1394,493)" d="m0 0 4 1-1 3-4 3-4 1-3 3-2-1 1-3h2v-2z" fill="#705C65"/>
<path transform="translate(1366,893)" d="m0 0 7 1 3 6h-8l-3-2z" fill="#705C65"/>
<path transform="translate(1317,891)" d="m0 0h2l-2 9h-7v-5l4-1z" fill="#222A38"/>
<path transform="translate(1485,602)" d="m0 0h1v14l-2 14-2 3 1-18z" fill="#2F313C"/>
<path transform="translate(1353,492)" d="m0 0 5 5 3 5v2h-13l-9-2 1-3 9 3 9 1-4-7z" fill="#7C6870"/>
<path transform="translate(1195,492)" d="m0 0h6l-6 7-5 4-4 1 4-6h3l1-5z" fill="#1B426D"/>
<path transform="translate(1276,770)" d="m0 0h3l-1 7h-4l-5-1v-4z" fill="#3577A8"/>
<path transform="translate(1334,541)" d="m0 0 12 1-1 4h-6l-4-2-14-1v-1z" fill="#303039"/>
<path transform="translate(1259,710)" d="m0 0 3 1-3 3-11 1 1 2-6-1-2-1v-2l3-1h12z" fill="#010F29"/>
<path transform="translate(1292,513)" d="m0 0h4l6 12v3h-2l-5-8-3-3z" fill="#0C1B28"/>
<path transform="translate(1254,476)" d="m0 0h13v1l-11 1-3 3 4 4-3 3-3-1 2-1-3-5v-4z" fill="#264E76"/>
<path transform="translate(1227,347)" d="m0 0 1 2-4 9-10 14-2 2 1-5 10-14z" fill="#222A39"/>
<path transform="translate(1376,752)" d="m0 0h7l3 3-1 3h-6l-3-2z" fill="#1E2530"/>
<path transform="translate(1307,610)" d="m0 0 4 1 2 5 1 3h2v3l-9-1-2-4 4 1 2 1-2-7z" fill="#2A2D39"/>
<path transform="translate(1294,606)" d="m0 0m-1 1m-6 1h6l2 2-6 3-5 3-5 2 3-4h2l2-5z" fill="#47424B"/>
<path transform="translate(1325,569)" d="m0 0 1 2h2l2 12v10l-2-1-2-15z" fill="#6C5F68"/>
<path transform="translate(1242,602)" d="m0 0 9 6 7 5 1 3-5-2v-2l-5-2-7-3z" fill="#2B547B"/>
<path transform="translate(1186,591)" d="m0 0 9 4v4l-8-1z" fill="#153B67"/>
<path transform="translate(1375,554)" d="m0 0 4 2 2 4-3 3-4-1-1-6z" fill="#4F4750"/>
<path transform="translate(1244,495)" d="m0 0 1 4-4 9-1 5-2 1-2 4-1-4 4-9h2l2-9z" fill="#112B4B"/>
<path transform="translate(1460,477)" d="m0 0h5l4 9-1 2-5-3-3-5z" fill="#02090E"/>
<path transform="translate(1467,469)" d="m0 0 5 1 5 6-3 1-10-1 4-1z" fill="#6B616B"/>
<path transform="translate(1367,505)" d="m0 0 3 1-1 5-6 2-7-1 6-3-3-2h8z" fill="#705C65"/>
<path transform="translate(1324,879)" d="m0 0 4 4v2h-3v4l-6 2 1-3-2-2 4-1 1-4z" fill="#2C2C36"/>
<path transform="translate(1276,493)" d="m0 0 5 5 6 5 3 5-6-2-5-5-3-6z" fill="#31313A"/>
<path transform="translate(1477,473)" d="m0 0 4 2 4 5 1 5-5-1-1-3-3-1 3-1z" fill="#33343E"/>
<path transform="translate(1138,873)" d="m0 0 2 4 5 20-1 3-3-9-3-12z" fill="#383843"/>
<path transform="translate(1222,638)" d="m0 0 8 1 1 3-5 3-4-1z" fill="#153B67"/>
<path transform="translate(1368,865)" d="m0 0h1v9l-3 3-4 1v-2h2l-1-6 5-1z" fill="#353640"/>
<path transform="translate(1481,576)" d="m0 0h1v13l2 1-2 5-3 3v-11z" fill="#353640"/>
<path transform="translate(1372,267)" d="m0 0 5 1 5 2-1 2h-8l-1 3h-2v3l-4 1 1-2h2l-1-3h2z" fill="#363741"/>
<path transform="translate(1517,545)" d="m0 0h2l-1 3-3 3-2 3-1 5 3-1-1 4-4-2 1-9 4-5z" fill="#32343E"/>
<path transform="translate(1345,770)" d="m0 0 2 4 1 9-4 2-1-5z" fill="#7F6870"/>
<path transform="translate(1264,478)" d="m0 0h7l1 3-2 3-7-1z" fill="#6F7B8C"/>
<path transform="translate(1271,678)" d="m0 0 3 1-2 4h-9v-4z" fill="#2D84BD"/>
<path transform="translate(1501,564)" d="m0 0 1 3-4 6-2 6-2-1 2-10z" fill="#363741"/>
<path transform="translate(1371,537)" d="m0 0h16v1l5 1v1h-21z" fill="#31313A"/>
<path transform="translate(1334,424)" d="m0 0h7l-5 5h-11l3-2z" fill="#7A646D"/>
<path transform="translate(1332,872)" d="m0 0 2 2-2 4 2 2-1 2-3-1-2-3-3-2 3-1v-2z" fill="#2E2D36"/>
<path transform="translate(1343,802)" d="m0 0h3l-1 5 2 1h-3l-2-1-2 4-3 1-3-2 6-2 1-5z" fill="#302F39"/>
<path transform="translate(1502,630)" d="m0 0 5 1-2 4-6 1-1-4z" fill="#081927"/>
<path transform="translate(1306,463)" d="m0 0h5l-4 2-1 2h2v2h-7l-5-1 1-2z" fill="#33333D"/>
<path transform="translate(1364,456)" d="m0 0 2 1 2 6 2 1-1 5-5 1 1-6z" fill="#806B73"/>
<path transform="translate(1254,719)" d="m0 0 6 2 3 4v8l1 2-4-2v-8l-6-5z" fill="#010F28"/>
<path transform="translate(1282,673)" d="m0 0 4 1-5 3-5 2h-12v-1l11-2z" fill="#3D6C94"/>
<path transform="translate(1337,664)" d="m0 0 4 1 4 9 1 3-5-2-2-8-4-2z" fill="#363741"/>
<path transform="translate(1491,635)" d="m0 0 3 1v7h-3l-2 6-1-3 2-10z" fill="#2D303C"/>
<path transform="translate(1440,503)" d="m0 0h1v8l4-2 1-3-1 8-2 2h-3z" fill="#2B2F3B"/>
<path transform="translate(1367,482)" d="m0 0 6 1-1 5h-6v-5z" fill="#7D7985"/>
<path transform="translate(1355,195)" d="m0 0h17l4 2v2l-5-1-1-1h-15z" fill="#2E2D36"/>
<path transform="translate(1269,802)" d="m0 0h5l1 3 3 1-1 4-5-3v-2h-3z" fill="#041943"/>
<path transform="translate(1267,708)" d="m0 0h15v2l-3 1h-10l-5-1z" fill="#222A39"/>
<path transform="translate(1148,483)" d="m0 0 3 1-1 9-4-2-1-5z" fill="#010F29"/>
<path transform="translate(1338,448)" d="m0 0 15 1v1h-6v14l-2-1v-10l-1-4h-6z" fill="#7C676F"/>
<path transform="translate(1395,404)" d="m0 0 3 1 3 6v4l-8-1 4-3z" fill="#6B616B"/>
<path transform="translate(1438,758)" d="m0 0h3v2l2 1h-3l-1 7-1 4-3-1 2-12z" fill="#2D2C36"/>
<path transform="translate(1221,689)" d="m0 0 1 2-1 3 4 1-10 1 1-4z" fill="#081927"/>
<path transform="translate(1294,309)" d="m0 0 4 1-6 4h-2l-1 3h-1v-7z" fill="#705C65"/>
<path transform="translate(1402,275)" d="m0 0 4 5-1 17h-1l-1-15-2-4z" fill="#363741"/>
<path transform="translate(1467,198)" d="m0 0 5 2 3 4-1 5-5-5z" fill="#222A39"/>
<path transform="translate(1422,199)" d="m0 0h6l2 2 2 8-3-1-2-6h-7z" fill="#02090E"/>
<path transform="translate(1432,800)" d="m0 0 2 4h-5l-1 5-6 4-2-1 6-5 3-5z" fill="#31313B"/>
<path transform="translate(1313,681)" d="m0 0h11l12 6-8-1-5-2v-2h-10z" fill="#32333C"/>
<path transform="translate(1300,658)" d="m0 0h7v5l-4 1-3-4z" fill="#222A38"/>
<path transform="translate(1554,557)" d="m0 0h1l1 12-2 2-3-2z" fill="#1E2736"/>
<path transform="translate(1240,555)" d="m0 0 1 3-2 9-1 1-1 8h-1v-14l2-2z" fill="#2B547B"/>
<path transform="translate(1338,482)" d="m0 0h5l-1 3-9 6-2-1z" fill="#0A1A27"/>
<path transform="translate(1392,680)" d="m0 0h1l1 12v10l-2-4-1-9z" fill="#2E2D36"/>
<path transform="translate(1265,615)" d="m0 0 4 1 3 5-11-2z" fill="#153B67"/>
<path transform="translate(1304,595)" d="m0 0h3l1 4-1 2h-5l-1-4z" fill="#A68990"/>
<path transform="translate(1276,474)" d="m0 0 6 2 1 10-2-1v-3h-2l-2-6z" fill="#02090E"/>
<path transform="translate(1362,164)" d="m0 0 6 3v2l-6 1-3-3z" fill="#252B39"/>
<path transform="translate(1273,768)" d="m0 0m-1 1m-1 1m-5 1h5l-2 1v4h5v1h-5l-1 3h-1z" fill="#2B547B"/>
<path transform="translate(1507,672)" d="m0 0 1 3-4 8-2-1 1-5 2-4z" fill="#1E2736"/>
<path transform="translate(1438,517)" d="m0 0h2l-1 7-3 2-3-1z" fill="#6B616B"/>
<path transform="translate(1348,511)" d="m0 0 3 1v4h-7v-4z" fill="#4F4750"/>
<path transform="translate(1355,488)" d="m0 0 4 3 3 1 2 5-6-1-3-4z" fill="#2F2F38"/>
<path transform="translate(1367,785)" d="m0 0h2l-2 4-4 2v2l-4 1v2l-2-1 2-3h3l1-4 4-1z" fill="#31313A"/>
<path transform="translate(1295,773)" d="m0 0 4 1v3l-9 2 1-3z" fill="#4090BB"/>
<path transform="translate(1263,725)" d="m0 0 3 3 1 7-5-2z" fill="#021844"/>
<path transform="translate(1297,677)" d="m0 0 3 1-7 5-8 1v-2z" fill="#5A515A"/>
<path transform="translate(1500,627)" d="m0 0 4 1-2 1v2l-3 1v3l4 2h-6l1-9z" fill="#2B2D38"/>
<path transform="translate(1505,608)" d="m0 0 1 3-4 9-3 1 1-5z" fill="#6B616B"/>
<path transform="translate(1481,583)" d="m0 0 2 3 3 1v9l-1-2-3-1 2-3-3-1z" fill="#272B37"/>
<path transform="translate(1341,534)" d="m0 0 5 1-1 3h-7l-2 1v-3l-2-1z" fill="#A1848B"/>
<path transform="translate(1193,490)" d="m0 0 10 1-1 2h-7l-2 5-3-1 1-5h2z" fill="#02173F"/>
<path transform="translate(1345,347)" d="m0 0 4 2-2 4h-5l1-4z" fill="#7F6870"/>
<path transform="translate(1326,804)" d="m0 0h2v3h3v3l2 1h-3l-1-2-1 1h-6z" fill="#353640"/>
<path transform="translate(1372,773)" d="m0 0h2v2l4 1-3 1v6l-6 2v-2l5-1z" fill="#2E2D36"/>
<path transform="translate(1234,516)" d="m0 0h2v9l-3 2v-10z" fill="#021435"/>
<path transform="translate(1438,210)" d="m0 0 5 2 1 5-3 3-1-2-1-5-2-2z" fill="#02090E"/>
<path transform="translate(1204,885)" d="m0 0 8 6 2 6h-2l-8-10z" fill="#202E43"/>
<path transform="translate(1367,878)" d="m0 0 6 1-1 3-7 1v-4z" fill="#363741"/>
<path transform="translate(1378,862)" d="m0 0 2 2 1 6h-2l2 4-5-1v-4h2z" fill="#302F38"/>
<path transform="translate(1171,847)" d="m0 0 3 1 4 5 1 6-3-3-5-6z" fill="#3B3A45"/>
<path transform="translate(1439,672)" d="m0 0h3l1 7-2 2-2-1-1-4z" fill="#363741"/>
<path transform="translate(1529,540)" d="m0 0 5 1-2 11h-1l-1-9-3-1z" fill="#31333E"/>
<path transform="translate(1203,495)" d="m0 0h4v6h-5z" fill="#438EB6"/>
<path transform="translate(1356,796)" d="m0 0 1 3-5 6h-3v2l-2-1 3-5 4-1z" fill="#302F38"/>
<path transform="translate(1467,719)" d="m0 0h1v8l-2 3-1 5h-1v-8l1-3h2z" fill="#30333E"/>
<path transform="translate(1283,623)" d="m0 0 1 2 2 1-3 4h-4l2-5z" fill="#3D6C94"/>
<path transform="translate(1494,567)" d="m0 0h1v11l-3 3-3 1 2-5 2-1z" fill="#262C39"/>
<path transform="translate(1293,505)" d="m0 0 3 1 1 4-1 2h-4v-6z" fill="#898490"/>
<path transform="translate(1331,676)" d="m0 0h2v2h2l1 4h-5l-2-3z" fill="#6E5B64"/>
<path transform="translate(1310,533)" d="m0 0 9 2-1 2h-7z" fill="#91838D"/>
<path transform="translate(1187,510)" d="m0 0 5 1-1 3h-7v-3z" fill="#081927"/>
<path transform="translate(1152,498)" d="m0 0 3 3-1 4-4-1 1-5z" fill="#021844"/>
<path transform="translate(1287,487)" d="m0 0 3 3v12l-2-2z" fill="#655C66"/>
<path transform="translate(1354,474)" d="m0 0 6 1 2 2h-2v2l-5-1z" fill="#383841"/>
</svg>
